<?xml version="1.0" encoding="UTF-8"?>
<svg version="1.1" xmlns="http://www.w3.org/2000/svg" width="1080" height="720">
<path d="M0 0 C1.18142578 -0.01224609 2.36285156 -0.02449219 3.58007812 -0.03710938 C38.1368054 -0.09391495 72.86717683 14.09610058 97.8203125 37.9609375 C100.1526947 40.22248662 100.1526947 40.22248662 102.73046875 42.17578125 C125.74257478 61.01717172 137.63989788 94.73745238 141.1875 123.1875 C141.42859822 128.64289522 141.43320035 134.10230541 141.4375 139.5625 C141.43817474 140.32760895 141.43884949 141.0927179 141.43954468 141.88101196 C141.41585527 158.7503078 139.18523568 173.28098834 133.1875 189.1875 C132.94547852 189.85217285 132.70345703 190.5168457 132.45410156 191.20166016 C127.71575721 204.11471571 121.298961 217.73127518 112.1875 228.1875 C111.5275 228.1875 110.8675 228.1875 110.1875 228.1875 C109.9915625 228.86167969 109.795625 229.53585937 109.59375 230.23046875 C107.642534 234.33344239 104.79591832 237.22638374 101.6875 240.5 C101.09324219 241.14517578 100.49898437 241.79035156 99.88671875 242.45507812 C96.598311 245.96246563 96.598311 245.96246563 95.1875 247.1875 C94.5275 247.1875 93.8675 247.1875 93.1875 247.1875 C93.1875 247.8475 93.1875 248.5075 93.1875 249.1875 C88.71691176 253.1875 88.71691176 253.1875 86.1875 253.1875 C85.5275 255.1675 84.8675 257.1475 84.1875 259.1875 C83.5275 259.1875 82.8675 259.1875 82.1875 259.1875 C82.001875 259.765 81.81625 260.3425 81.625 260.9375 C79.09943462 264.89055885 75.27284204 266.6988555 70.8203125 267.7421875 C69.12066014 268.04399493 67.42009774 268.34071364 65.71875 268.6328125 C62.42631095 269.35430377 59.63347689 270.6723184 56.6015625 272.11328125 C51.93879257 274.18813842 47.03971051 275.62361352 42.1875 277.1875 C41.16765015 277.54847778 41.16765015 277.54847778 40.12719727 277.91674805 C12.54990137 287.56236321 -21.50291991 285.57288448 -48.375 274.625 C-54.98637544 272.06328376 -60.98829422 270.4153479 -68.05078125 269.8046875 C-84.02605964 268.38646893 -84.02605964 268.38646893 -90.8125 263.1875 C-90.8125 262.5275 -90.8125 261.8675 -90.8125 261.1875 C-91.8025 260.8575 -92.7925 260.5275 -93.8125 260.1875 C-98.37374172 253.04816514 -98.2744308 245.37394031 -97.8125 237.1875 C-98.40546875 236.93742188 -98.9984375 236.68734375 -99.609375 236.4296875 C-103.73690669 234.10246219 -106.08925565 229.97563827 -108.8125 226.1875 C-109.45574219 225.29675781 -110.09898437 224.40601563 -110.76171875 223.48828125 C-124.1897251 204.15089686 -132.92449523 181.97517425 -136 158.6875 C-136.17724609 157.43324219 -136.35449219 156.17898438 -136.53710938 154.88671875 C-137.92670268 144.63913879 -138.10568223 135.01523019 -137 124.75 C-136.86634033 123.50742432 -136.86634033 123.50742432 -136.72998047 122.23974609 C-136.00753346 115.99687489 -134.7495708 110.17069533 -132.8125 104.1875 C-132.53664063 103.20136719 -132.26078125 102.21523438 -131.9765625 101.19921875 C-128.25173447 88.16232065 -122.85777388 76.23204974 -115.51171875 64.859375 C-114.12132315 62.67309778 -112.91090889 60.52928545 -111.8125 58.1875 C-111.1525 58.1875 -110.4925 58.1875 -109.8125 58.1875 C-109.57660156 57.46949219 -109.34070313 56.75148438 -109.09765625 56.01171875 C-107.60036671 52.72132258 -105.72469474 50.6256392 -103.25 48 C-100.17064202 44.84561063 -100.17064202 44.84561063 -97.8125 41.1875 C-97.1525 41.1875 -96.4925 41.1875 -95.8125 41.1875 C-95.8125 40.5275 -95.8125 39.8675 -95.8125 39.1875 C-94.22255885 37.72832037 -92.56262428 36.34500645 -90.875 35 C-89.86824219 34.195625 -88.86148438 33.39125 -87.82421875 32.5625 C-86.83035156 31.77875 -85.83648438 30.995 -84.8125 30.1875 C-83.61560547 29.2284375 -83.61560547 29.2284375 -82.39453125 28.25 C-80.22400921 26.52894889 -78.02849091 24.84949318 -75.8125 23.1875 C-75.18859375 22.70925781 -74.5646875 22.23101562 -73.921875 21.73828125 C-52.25835705 6.17295831 -26.21266266 0.01416135 0 0 Z " fill="#124065" transform="translate(796.8125,202.8125)"/>
<path d="M0 0 C1.18142578 -0.01224609 2.36285156 -0.02449219 3.58007812 -0.03710938 C38.1368054 -0.09391495 72.86717683 14.09610058 97.8203125 37.9609375 C100.1526947 40.22248662 100.1526947 40.22248662 102.73046875 42.17578125 C125.74257478 61.01717172 137.63989788 94.73745238 141.1875 123.1875 C141.42859822 128.64289522 141.43320035 134.10230541 141.4375 139.5625 C141.43817474 140.32760895 141.43884949 141.0927179 141.43954468 141.88101196 C141.41585527 158.7503078 139.18523568 173.28098834 133.1875 189.1875 C132.94547852 189.85217285 132.70345703 190.5168457 132.45410156 191.20166016 C127.71575721 204.11471571 121.298961 217.73127518 112.1875 228.1875 C111.5275 228.1875 110.8675 228.1875 110.1875 228.1875 C109.9915625 228.86167969 109.795625 229.53585937 109.59375 230.23046875 C107.642534 234.33344239 104.79591832 237.22638374 101.6875 240.5 C101.09324219 241.14517578 100.49898437 241.79035156 99.88671875 242.45507812 C96.598311 245.96246563 96.598311 245.96246563 95.1875 247.1875 C94.5275 247.1875 93.8675 247.1875 93.1875 247.1875 C93.1875 247.8475 93.1875 248.5075 93.1875 249.1875 C91.22602126 250.57688077 89.22583424 251.9135411 87.1875 253.1875 C85.52857528 251.52857528 85.93763187 249.58702582 85.875 247.3125 C85.81892578 245.98605469 85.81892578 245.98605469 85.76171875 244.6328125 C86.1875 242.1875 86.1875 242.1875 88.01171875 240.453125 C90.1875 239.1875 90.1875 239.1875 93.3125 237.8125 C96.78034879 235.85241155 97.05834961 234.91632221 98.1875 231.1875 C98.4330558 228.1603203 98.50043632 225.16118674 98.55078125 222.125 C99.1875 219.1875 99.1875 219.1875 101.69677734 217.0402832 C105.07714846 213.16852899 104.83928082 210.56957105 104.67578125 205.60546875 C104.66870651 204.79128983 104.66163177 203.9771109 104.65434265 203.13825989 C104.62645598 200.54955357 104.56373316 197.96304727 104.5 195.375 C104.4749095 193.61526572 104.45209764 191.85549737 104.43164062 190.09570312 C104.37664872 185.79212704 104.29041992 181.4901859 104.1875 177.1875 C103.548125 177.043125 102.90875 176.89875 102.25 176.75 C100.1875 176.1875 100.1875 176.1875 99.1875 175.1875 C99.08510639 173.39422556 99.05178895 171.59696611 99.0456543 169.80078125 C99.03510262 168.07263184 99.03510262 168.07263184 99.02433777 166.30957031 C99.02017349 165.05241211 99.01600922 163.79525391 99.01171875 162.5 C98.99445786 160.53341254 98.977173 158.56682496 98.95851612 156.60025024 C98.9129604 151.73987947 98.87527568 146.87961508 98.86157227 142.01904297 C98.8534012 139.29919473 98.83472447 136.57980166 98.80464172 133.86010742 C98.77661905 131.29919566 98.7635633 128.738064 98.76750183 126.17700195 C98.65125862 117.87819483 97.78974465 110.88454057 91.8125 104.75 C86.88606162 101.8175962 82.42601446 100.93352796 76.734375 100.921875 C75.48664307 100.91800781 74.23891113 100.91414063 72.95336914 100.91015625 C71.61474034 100.91838295 70.27611685 100.92751648 68.9375 100.9375 C68.26040985 100.93927246 67.5833197 100.94104492 66.88571167 100.94287109 C53.26465825 100.9845312 39.74494372 101.87385515 26.1875 103.1875 C26.58582031 102.46046875 26.98414063 101.7334375 27.39453125 100.984375 C31.15727547 93.84340057 33.59337507 87.08931349 35.1875 79.1875 C35.373125 78.35734375 35.55875 77.5271875 35.75 76.671875 C37.02813223 69.41390983 36.53948986 62.14938999 34.1875 55.1875 C33.93097656 54.39601563 33.67445313 53.60453125 33.41015625 52.7890625 C29.20209616 41.04983907 20.63096915 31.53349706 9.4375 26.01171875 C-0.76573816 22.27407421 -14.48592867 20.81329722 -24.76953125 25.08984375 C-37.50497592 31.9324058 -45.13668194 41.76836783 -49.921875 55.33203125 C-52.93103107 68.35850949 -52.18002382 83.32363099 -45.8125 95.1875 C-44.11569326 97.71086281 -42.36790994 100.03565807 -40.36328125 102.3203125 C-38.80555555 104.19586133 -37.86180415 105.99925123 -36.8125 108.1875 C-37.92061035 108.27201416 -39.0287207 108.35652832 -40.17041016 108.44360352 C-44.35170771 108.77037382 -48.52893474 109.13581166 -52.70605469 109.51196289 C-54.50108749 109.66839451 -56.29702198 109.81485915 -58.09375 109.95043945 C-69.0065355 110.78168679 -77.70878793 112.24709428 -87.27099609 117.74194336 C-89.8125 119.1875 -89.8125 119.1875 -91.8125 119.1875 C-92.29358275 120.60351714 -92.77228141 122.02034437 -93.25 123.4375 C-93.51683594 124.22640625 -93.78367187 125.0153125 -94.05859375 125.828125 C-95.23990734 129.52508566 -95.93811449 132.76088816 -95.97071838 136.65472412 C-95.98540161 137.98820137 -95.98540161 137.98820137 -96.00038147 139.34861755 C-96.00613693 140.316064 -96.0118924 141.28351044 -96.01782227 142.28027344 C-96.02772186 143.30498245 -96.03762146 144.32969147 -96.04782104 145.38545227 C-96.07940917 148.77256967 -96.10418296 152.1597011 -96.12890625 155.546875 C-96.14947809 157.89528773 -96.17047462 160.24369677 -96.19187927 162.59210205 C-96.24707616 168.7734275 -96.29649601 174.95478623 -96.34472656 181.13616943 C-96.39495894 187.44367434 -96.45063595 193.75113091 -96.50585938 200.05859375 C-96.61341183 212.43485454 -96.71486333 224.8111573 -96.8125 237.1875 C-104.39197675 235.64429653 -108.63278615 226.5770095 -112.8125 220.5625 C-125.04617497 201.82818598 -133.07631091 180.82562828 -136 158.6875 C-136.17724609 157.43324219 -136.35449219 156.17898438 -136.53710938 154.88671875 C-137.92670268 144.63913879 -138.10568223 135.01523019 -137 124.75 C-136.86634033 123.50742432 -136.86634033 123.50742432 -136.72998047 122.23974609 C-136.00753346 115.99687489 -134.7495708 110.17069533 -132.8125 104.1875 C-132.53664063 103.20136719 -132.26078125 102.21523438 -131.9765625 101.19921875 C-128.25173447 88.16232065 -122.85777388 76.23204974 -115.51171875 64.859375 C-114.12132315 62.67309778 -112.91090889 60.52928545 -111.8125 58.1875 C-111.1525 58.1875 -110.4925 58.1875 -109.8125 58.1875 C-109.57660156 57.46949219 -109.34070313 56.75148438 -109.09765625 56.01171875 C-107.60036671 52.72132258 -105.72469474 50.6256392 -103.25 48 C-100.17064202 44.84561063 -100.17064202 44.84561063 -97.8125 41.1875 C-97.1525 41.1875 -96.4925 41.1875 -95.8125 41.1875 C-95.8125 40.5275 -95.8125 39.8675 -95.8125 39.1875 C-94.22255885 37.72832037 -92.56262428 36.34500645 -90.875 35 C-89.86824219 34.195625 -88.86148438 33.39125 -87.82421875 32.5625 C-86.83035156 31.77875 -85.83648438 30.995 -84.8125 30.1875 C-83.61560547 29.2284375 -83.61560547 29.2284375 -82.39453125 28.25 C-80.22400921 26.52894889 -78.02849091 24.84949318 -75.8125 23.1875 C-75.18859375 22.70925781 -74.5646875 22.23101562 -73.921875 21.73828125 C-52.25835705 6.17295831 -26.21266266 0.01416135 0 0 Z " fill="#D2EEFC" transform="translate(796.8125,202.8125)"/>
<path d="M0 0 C0.93938431 0.21184228 0.93938431 0.21184228 1.89774609 0.42796421 C9.79963602 2.05354075 17.41519167 2.28696351 25.46411133 2.27124023 C26.88455501 2.27563753 28.30499612 2.28094329 29.72543335 2.28707886 C32.76132083 2.29849656 35.79713929 2.30403211 38.83304787 2.30496025 C43.63694628 2.30691483 48.44070319 2.32504019 53.24455261 2.34571838 C65.16722725 2.39470262 77.08993968 2.42581969 89.01269531 2.44702148 C98.29955357 2.46355366 107.58628857 2.48636122 116.87306422 2.53004223 C121.64583859 2.55178178 126.41837848 2.55988016 131.19119895 2.55764949 C134.15899257 2.55931813 137.1266332 2.5733766 140.0943718 2.59086227 C142.12082597 2.59911267 144.14732361 2.59253785 146.17378235 2.585495 C147.38618591 2.59514282 148.59858948 2.60479065 149.84773254 2.61473083 C150.89719464 2.61674216 151.94665674 2.61875349 153.02792072 2.62082577 C157.23399864 3.15743203 160.50385722 4.813404 163.8125 7.4375 C166.25601951 10.65265725 166.12036908 14.29651752 166.09765625 18.203125 C166.09443359 19.1828125 166.09121094 20.1625 166.08789062 21.171875 C166.07951172 22.18765625 166.07113281 23.2034375 166.0625 24.25 C166.05798828 25.28125 166.05347656 26.3125 166.04882812 27.375 C166.03706088 29.91672573 166.02062011 32.45833319 166 35 C165.08420166 35.08435303 165.08420166 35.08435303 164.14990234 35.17041016 C163.34504395 35.25081543 162.54018555 35.3312207 161.7109375 35.4140625 C160.51670166 35.52935303 160.51670166 35.52935303 159.29833984 35.64697266 C154.85092711 36.33009979 150.70263746 38.35143943 148 42 C145.80334065 47.21199985 145.66588922 51.94170703 145.6875 57.5 C145.67138672 58.32886719 145.65527344 59.15773438 145.63867188 60.01171875 C145.63373644 66.22049581 146.78679912 70.42983123 150.9375 75.25 C154.19643014 77.11224579 156.50886111 77.54473459 160.19140625 78.109375 C161.82057983 78.36412598 161.82057983 78.36412598 163.48266602 78.62402344 C164.72874634 78.81013184 164.72874634 78.81013184 166 79 C166.09957372 83.00171468 166.17179608 87.00294042 166.21972656 91.00561523 C166.23972628 92.36446713 166.26693576 93.72323424 166.30175781 95.08178711 C166.6558618 109.26156893 166.6558618 109.26156893 162 115 C158.67682589 118.12319555 156.32269171 118.37776396 151.82008362 118.38768005 C149.91686844 118.402537 149.91686844 118.402537 147.97520447 118.41769409 C146.57144068 118.41345607 145.16767783 118.40889821 143.76391602 118.40405273 C142.28376754 118.40975574 140.80362346 118.41671973 139.32348633 118.42485046 C135.30485726 118.44280513 131.28644627 118.44160917 127.26778913 118.43590808 C123.91285055 118.43281946 120.55795406 118.43890505 117.20302147 118.44494683 C109.28822551 118.4589981 101.37353746 118.45742586 93.45874023 118.44604492 C85.29366518 118.43456354 77.12891857 118.4486382 68.9638868 118.4754414 C61.95314678 118.49759369 54.9425099 118.50423684 47.93173736 118.49836498 C43.74473611 118.49499299 39.55794541 118.49742635 35.37097359 118.51461601 C31.43347466 118.53007564 27.49646248 118.52614096 23.55898285 118.50731087 C22.11461671 118.50362217 20.67021459 118.50674172 19.22588158 118.51719666 C17.25292462 118.53038678 15.27984208 118.51646317 13.30690002 118.50120544 C12.20317834 118.50099616 11.09945665 118.50078688 9.96228886 118.50057125 C6.26063004 117.87506035 4.64290159 116.62851421 2 114 C0.0630289 111.07553519 -0.24843864 108.81612413 -0.24050903 105.34295654 C-0.24325836 104.41190094 -0.24600769 103.48084534 -0.24884033 102.52157593 C-0.24164978 101.50737579 -0.23445923 100.49317566 -0.22705078 99.44824219 C-0.22734283 98.37476532 -0.22763489 97.30128845 -0.22793579 96.19528198 C-0.22654203 92.64573087 -0.21097843 89.09638946 -0.1953125 85.546875 C-0.19158254 83.08636591 -0.18873549 80.62585534 -0.18673706 78.16534424 C-0.17909929 71.68802798 -0.15944947 65.21080135 -0.1373291 58.73352051 C-0.11687383 52.12444267 -0.10773602 45.51535036 -0.09765625 38.90625 C-0.0762038 25.93746175 -0.04245026 12.96873564 0 0 Z " fill="#39ABF4" transform="translate(709,343)"/>
<path d="M0 0 C0.33 0.66 0.66 1.32 1 2 C0.67 2.99 0.34 3.98 0 5 C0.99 4.67 1.98 4.34 3 4 C3.33 3.01 3.66 2.02 4 1 C5.65 0.67 7.3 0.34 9 0 C9 0.33 9 0.66 9 1 C10.17357056 1.03758423 10.17357056 1.03758423 11.37084961 1.07592773 C14.89324949 1.19149788 18.4153556 1.31439949 21.9375 1.4375 C23.78504883 1.49647461 23.78504883 1.49647461 25.66992188 1.55664062 C26.83974609 1.59853516 28.00957031 1.64042969 29.21484375 1.68359375 C30.84087524 1.73858032 30.84087524 1.73858032 32.49975586 1.79467773 C35 2 35 2 36 3 C36.09993532 5.0605531 36.13080906 7.1245259 36.1328125 9.1875 C36.13410156 10.44304687 36.13539063 11.69859375 36.13671875 12.9921875 C36.13462402 13.64928711 36.1325293 14.30638672 36.13037109 14.98339844 C36.12502234 16.99161335 36.13031691 18.99960459 36.13671875 21.0078125 C36.13478516 22.89113281 36.13478516 22.89113281 36.1328125 24.8125 C36.13168457 25.97394531 36.13055664 27.13539063 36.12939453 28.33203125 C36 31 36 31 35 32 C37.64 31.67 40.28 31.34 43 31 C43.33 31.99 43.66 32.98 44 34 C43.195625 34.5775 42.39125 35.155 41.5625 35.75 C37.98576248 39.24658654 38.45492966 43.38458099 38.2109375 48.125 C37.93552349 51.87879092 37.33001406 54.01466948 35 57 C32.11269993 58.92315724 29.13287606 60.5156604 26 62 C26.03480469 62.72445312 26.06960938 63.44890625 26.10546875 64.1953125 C26.26631949 69.93998168 26.23466184 74.01322966 23 79 C22.34 79 21.68 79 21 79 C20.814375 79.5775 20.62875 80.155 20.4375 80.75 C17.91193462 84.70305885 14.08534204 86.5113555 9.6328125 87.5546875 C7.93316014 87.85649493 6.23259774 88.15321364 4.53125 88.4453125 C1.23881095 89.16680377 -1.55402311 90.4848184 -4.5859375 91.92578125 C-9.24870743 94.00063842 -14.14778949 95.43611352 -19 97 C-19.6798999 97.24065186 -20.3597998 97.48130371 -21.06030273 97.72924805 C-48.63759863 107.37486321 -82.69041991 105.38538448 -109.5625 94.4375 C-116.17387544 91.87578376 -122.17579422 90.2278479 -129.23828125 89.6171875 C-147.19924116 88.03557857 -147.19924116 88.03557857 -152 83 C-153.0625 79.1875 -153.0625 79.1875 -153 76 C-153.66 76 -154.32 76 -155 76 C-155 73.36 -155 70.72 -155 68 C-153.02 67.01 -153.02 67.01 -151 66 C-149.3269522 68.15106146 -147.85443214 70.25474375 -146.5 72.625 C-145.06865192 75.24838109 -145.06865192 75.24838109 -142 77 C-139.18246009 77.3028897 -139.18246009 77.3028897 -135.93360901 77.25396729 C-134.03028809 77.26242676 -134.03028809 77.26242676 -132.08851624 77.27105713 C-130.67953434 77.26716837 -129.27055301 77.26307202 -127.86157227 77.25878906 C-126.37995227 77.26149868 -124.89833362 77.26505946 -123.41671753 77.26940918 C-119.38986203 77.27853969 -115.36310882 77.27498601 -111.3362515 77.26865101 C-107.12471312 77.2635935 -102.91318361 77.26828186 -98.7016449 77.27142334 C-91.62749659 77.27506411 -84.55339002 77.2702614 -77.47924805 77.26074219 C-69.29892682 77.24986162 -61.11870531 77.25337986 -52.9383865 77.264395 C-45.91835538 77.27346973 -38.89835429 77.27475211 -31.8783192 77.26951766 C-27.68413244 77.26639844 -23.48999255 77.26598721 -19.29580879 77.27259064 C-15.35188122 77.27836602 -11.40808223 77.27436368 -7.46416855 77.26280212 C-6.01615932 77.26015639 -4.56813929 77.26091917 -3.12013435 77.26532745 C-1.1445517 77.27078755 0.83105459 77.26272841 2.80662537 77.25396729 C3.91256766 77.25321323 5.01850996 77.25245918 6.15796566 77.25168228 C9.00370161 76.9996722 10.64607075 76.59108212 13 75 C14.23290201 72.54295238 14.23290201 72.54295238 15 70 C15.33 69.34 15.66 68.68 16 68 C16.15469367 65.82325217 16.25002106 63.6421652 16.31640625 61.4609375 C16.35830078 60.15898437 16.40019531 58.85703125 16.44335938 57.515625 C16.48317299 56.13541955 16.52288522 54.75521117 16.5625 53.375 C16.60569407 51.98696585 16.64930865 50.59894472 16.69335938 49.2109375 C16.79972 45.80739744 16.90174714 42.40378222 17 39 C16.39526855 39.02102783 15.79053711 39.04205566 15.16748047 39.0637207 C14.36713379 39.08007568 13.56678711 39.09643066 12.7421875 39.11328125 C11.95183105 39.13430908 11.16147461 39.15533691 10.34716797 39.17700195 C5.80099495 38.83417114 2.70101826 36.34908345 -0.8125 33.5625 C-4.51927027 28.6851707 -4.33515099 23.47801698 -4.3125 17.625 C-4.32861328 16.8 -4.34472656 15.975 -4.36132812 15.125 C-4.36566984 9.65443286 -3.53331585 5.86140105 -1 1 C-0.67 0.67 -0.34 0.34 0 0 Z " fill="#104068" transform="translate(858,383)"/>
<path d="M0 0 C8.76569915 6.21598058 14.29286416 14.48406122 17.6796875 24.64453125 C18.94101384 37.52921933 18.31557244 49.54647614 10.73046875 60.4453125 C5.12762845 67.23510999 -2.44073754 73.08146 -11.3203125 74.64453125 C-23.28287233 75.57410596 -33.18561502 73.91800047 -42.61328125 66.19921875 C-49.18279985 60.21599586 -54.63818247 51.68946661 -55.51318359 42.65258789 C-55.93669361 31.62464377 -55.48903158 22.6804608 -50.3203125 12.64453125 C-49.959375 11.87753906 -49.5984375 11.11054688 -49.2265625 10.3203125 C-45.40152903 3.14837474 -38.39822227 -1.39310931 -30.9453125 -4.29296875 C-20.34496743 -7.27373362 -9.45961787 -5.52607307 0 0 Z " fill="#F6D83B" transform="translate(807.3203125,238.35546875)"/>
<path d="M0 0 C1.29228516 -0.020625 2.58457031 -0.04125 3.91601562 -0.0625 C5.16447266 -0.06765625 6.41292969 -0.0728125 7.69921875 -0.078125 C8.82545654 -0.0874707 9.95169434 -0.09681641 11.11206055 -0.10644531 C14.82242171 0.30679195 17.17040063 1.24598164 20.3125 3.25 C22.48144785 6.51896275 22.55607367 9.25376209 22.53955078 13.12011719 C22.53932419 14.89150055 22.53932419 14.89150055 22.53909302 16.69866943 C22.52877045 17.96857727 22.51844788 19.23848511 22.5078125 20.546875 C22.5049826 21.85078186 22.50215271 23.15468872 22.49923706 24.49810791 C22.49161721 27.9570895 22.47198308 31.41590193 22.4498291 34.87481689 C22.42933503 38.40740674 22.42022774 41.94002403 22.41015625 45.47265625 C22.38873548 52.39850679 22.35461956 59.32424526 22.3125 66.25 C21.3225 66.25 20.3325 66.25 19.3125 66.25 C19.29791748 65.65574219 19.28333496 65.06148438 19.26831055 64.44921875 C19.19311322 61.71554366 19.09669478 58.98299583 19 56.25 C18.97744141 55.31542969 18.95488281 54.38085938 18.93164062 53.41796875 C18.63417478 45.68385687 17.39310489 38.49488716 11.91876507 32.55573273 C4.33194965 26.38841117 -5.1534423 26.68763119 -14.42114258 26.76757812 C-15.88247034 26.7653881 -17.34379632 26.76138503 -18.80511475 26.75572205 C-21.93225273 26.7472062 -25.05904618 26.75086996 -28.18616676 26.7641449 C-33.1325809 26.78458856 -38.07865238 26.77446003 -43.02507019 26.7598877 C-53.51674486 26.73321574 -64.00830602 26.73985648 -74.5 26.75 C-85.84601951 26.76095637 -97.19186144 26.76619477 -108.53785056 26.73270559 C-113.4540282 26.71933915 -118.36968732 26.72527944 -123.28583395 26.74607086 C-126.34098847 26.75505369 -129.39594274 26.74758667 -132.45108032 26.73565865 C-133.86643335 26.73352762 -135.28181597 26.73825053 -136.69711876 26.7503643 C-138.63031892 26.76597801 -140.56368042 26.75468152 -142.49690247 26.74206543 C-144.1186726 26.74432758 -144.1186726 26.74432758 -145.77320576 26.74663544 C-149.35865067 26.13562678 -151.05947456 24.69913094 -153.6875 22.25 C-153.5 19.4375 -153.5 19.4375 -152.6875 16.25 C-148.82589153 13.26834374 -144.77764383 12.43487601 -140.0625 11.6875 C-139.33337402 11.56455566 -138.60424805 11.44161133 -137.85302734 11.31494141 C-131.2137601 10.23955724 -124.54084413 9.51704022 -117.84521484 8.89624023 C-114.63130214 8.59444682 -111.7620055 8.27483517 -108.6875 7.25 C-105.54554835 7.02419239 -102.39925013 7.06485194 -99.25 7.0625 C-97.96125977 7.04413086 -97.96125977 7.04413086 -96.64648438 7.02539062 C-95.4002832 7.02249023 -95.4002832 7.02249023 -94.12890625 7.01953125 C-93.37295166 7.01542236 -92.61699707 7.01131348 -91.83813477 7.00708008 C-89.40314049 7.28211916 -87.84701315 8.12778262 -85.6875 9.25 C-83.15381359 9.49789196 -80.78286303 9.63041403 -78.25 9.625 C-77.19462036 9.6247583 -77.19462036 9.6247583 -76.11791992 9.62451172 C-68.42487905 9.45966704 -61.40639563 7.38126089 -54.40795898 4.22045898 C-51.31868491 3.118434 -48.66238243 2.8533812 -45.390625 2.65234375 C-43.58078125 2.53342773 -43.58078125 2.53342773 -41.734375 2.41210938 C-39.85492187 2.30092773 -39.85492187 2.30092773 -37.9375 2.1875 C-35.46343811 2.03158256 -32.98947647 1.87406504 -30.515625 1.71484375 C-29.32815674 1.63959473 -28.14068848 1.5643457 -26.91723633 1.48681641 C-24.33048073 1.29714576 -21.78542615 1.03993832 -19.21484375 0.70703125 C-12.83469549 -0.04997312 -6.41631395 0.02583317 0 0 Z " fill="#3692D2" transform="translate(864.6875,310.75)"/>
<path d="M0 0 C0.825 0.66 1.65 1.32 2.5 2 C4.56890419 3.04289755 4.56890419 3.04289755 6.5 3 C8.06249809 1.68798827 8.06249809 1.68798827 9.5 0 C13.30573964 -2.63839307 17.4864205 -2.33150546 21.9375 -2.3125 C22.68837891 -2.32861328 23.43925781 -2.34472656 24.21289062 -2.36132812 C28.76406794 -2.36533092 31.83106445 -1.99787776 35.5 1 C35.5 1.66 35.5 2.32 35.5 3 C36.098125 3.226875 36.69625 3.45375 37.3125 3.6875 C40.18909558 5.41345735 41.01993165 6.99052768 42.5 10 C43.01171875 13.22265625 43.01171875 13.22265625 43.1875 17.0625 C43.22093506 17.76624756 43.25437012 18.46999512 43.28881836 19.19506836 C43.76849401 31.11718859 43.57586962 43.07161023 43.5 55 C37.56 55 31.62 55 25.5 55 C25.45101562 52.7828125 25.40203125 50.565625 25.3515625 48.28125 C25.29739707 46.10996331 25.24015115 43.93877787 25.18261719 41.76757812 C25.14457165 40.27026052 25.10967833 38.77285911 25.078125 37.27539062 C25.03193799 35.11037433 24.97403983 32.94592314 24.9140625 30.78125 C24.8826416 29.48251953 24.8512207 28.18378906 24.81884766 26.84570312 C24.47229683 22.66586494 23.61830494 19.03374552 22.5 15 C21.241875 14.814375 19.98375 14.62875 18.6875 14.4375 C17.97980469 14.33308594 17.27210938 14.22867187 16.54296875 14.12109375 C14.2974658 13.86095201 14.2974658 13.86095201 11.5 15 C9.77354491 20.31507233 9.22147843 25.17889159 9.0859375 30.78125 C9.06657135 31.48020386 9.0472052 32.17915771 9.0272522 32.89929199 C8.9681785 35.09940964 8.92136527 37.29958172 8.875 39.5 C8.83675343 41.00522929 8.79769799 42.51043825 8.7578125 44.015625 C8.66253875 47.6768957 8.57824644 51.33832122 8.5 55 C5.68743719 55.02684312 2.87512759 55.04676188 0.0625 55.0625 C-1.14116211 55.07506836 -1.14116211 55.07506836 -2.36914062 55.08789062 C-4.41295221 55.0965143 -6.45683902 55.0522815 -8.5 55 C-10.54077635 52.95922365 -9.70918827 48.72397039 -9.74609375 45.9140625 C-9.77903414 44.24478646 -9.81224575 42.57551576 -9.84570312 40.90625 C-9.89313128 38.2640351 -9.93754693 35.62184156 -9.97680664 32.97949219 C-10.01649453 30.43661531 -10.06805095 27.8941909 -10.12109375 25.3515625 C-10.1295079 24.56085358 -10.13792206 23.77014465 -10.14659119 22.95547485 C-10.23290152 19.1315483 -10.33014292 17.25478562 -12.5 14 C-16.06419259 13.6039786 -18.57883786 13.58790115 -21.875 15.0625 C-25.41585598 19.28428983 -24.66266036 26.17159248 -24.81640625 31.46484375 C-24.83718735 32.14301651 -24.85796844 32.82118927 -24.87937927 33.51991272 C-24.94409309 35.65901831 -25.0033909 37.79823296 -25.0625 39.9375 C-25.10575984 41.39909924 -25.14937634 42.86068797 -25.19335938 44.32226562 C-25.3003555 47.881401 -25.40000585 51.44063367 -25.5 55 C-31.11 55 -36.72 55 -42.5 55 C-42.5 36.52 -42.5 18.04 -42.5 -1 C-37.55 -1 -32.6 -1 -27.5 -1 C-26.51 0.485 -26.51 0.485 -25.5 2 C-24.4171875 1.0409375 -24.4171875 1.0409375 -23.3125 0.0625 C-17.20396172 -4.41709474 -6.27730014 -4.41498092 0 0 Z " fill="#0C2F50" transform="translate(227.5,310)"/>
<path d="M0 0 C5.61 0 11.22 0 17 0 C17.66 9.24 18.32 18.48 19 28 C20.98 26.68 22.96 25.36 25 24 C27.23828125 23.49829102 27.23828125 23.49829102 29.3125 23.50390625 C30.46105469 23.50293945 30.46105469 23.50293945 31.6328125 23.50195312 C32.80457031 23.53192383 32.80457031 23.53192383 34 23.5625 C35.17175781 23.55186523 35.17175781 23.55186523 36.3671875 23.54101562 C43.80655983 23.6224229 48.9007918 26.3661311 54.39453125 31.265625 C60.30581654 37.65153903 62.51057187 46.81195223 62.31640625 55.31640625 C61.4486836 62.67597984 58.41940715 70.77600416 53 76 C45.02189666 81.63837111 38.76363147 83.77256566 29 83 C24.91564951 81.97391521 21.5150935 80.34339567 18 78 C17.67 78.99 17.34 79.98 17 81 C11.39 81 5.78 81 0 81 C0 54.27 0 27.54 0 0 Z M20 42 C16.11587592 47.4396366 15.99366882 52.51754997 17 59 C18.74907445 63.22030465 21.00427187 66.04190588 25.15625 68.03515625 C29.11630251 69.16756853 31.70987136 69.06769668 35.75 68.125 C39.99718444 65.34799479 42.26639078 62.78842722 44 58 C44.77085108 53.21821647 45.18342332 48.42275641 43.0078125 43.96875 C40.28827712 40.52287908 37.18182555 38.34115818 32.8515625 37.6640625 C27.39725865 37.56837296 24.24992535 38.25601815 20 42 Z " fill="#092E4E" transform="translate(551,284)"/>
<path d="M0 0 C1.48831242 0.00667405 2.97660807 0.01863442 4.46484375 0.03515625 C5.22345703 0.03966797 5.98207031 0.04417969 6.76367188 0.04882812 C8.64326246 0.06064945 10.52281274 0.07858547 12.40234375 0.09765625 C12.40234375 5.04765625 12.40234375 9.99765625 12.40234375 15.09765625 C14.36171875 15.07703125 16.32109375 15.05640625 18.33984375 15.03515625 C20.36067251 15.01388437 22.38270176 15.02521572 24.40234375 15.09765625 C25.40234375 16.09765625 25.40234375 16.09765625 25.53515625 18.78515625 C25.53257812 19.87828125 25.53 20.97140625 25.52734375 22.09765625 C25.53121094 23.73734375 25.53121094 23.73734375 25.53515625 25.41015625 C25.40234375 28.09765625 25.40234375 28.09765625 24.40234375 29.09765625 C22.38270176 29.17009678 20.36067251 29.18142813 18.33984375 29.16015625 C17.23511719 29.15113281 16.13039063 29.14210938 14.9921875 29.1328125 C14.13753906 29.12121094 13.28289062 29.10960937 12.40234375 29.09765625 C12.51233983 32.84825428 12.64294244 36.59785969 12.77734375 40.34765625 C12.80828125 41.41113281 12.83921875 42.47460938 12.87109375 43.5703125 C12.92910156 45.10751953 12.92910156 45.10751953 12.98828125 46.67578125 C13.01970215 47.6184082 13.05112305 48.56103516 13.08349609 49.53222656 C13.30158691 52.45194722 13.30158691 52.45194722 15.40234375 56.09765625 C18.37234375 56.09765625 21.34234375 56.09765625 24.40234375 56.09765625 C26.37329183 61.02502644 26.58233655 64.87786497 26.40234375 70.09765625 C18.74099566 73.1218726 11.17740192 74.18117416 3.3828125 71.1875 C-0.78995587 68.89124285 -3.09292611 65.61184667 -4.59765625 61.09765625 C-4.68219495 58.65657865 -4.71371411 56.24506412 -4.6953125 53.8046875 C-4.69389755 53.09865891 -4.6924826 52.39263031 -4.69102478 51.66520691 C-4.68543389 49.41347999 -4.67288313 47.16185304 -4.66015625 44.91015625 C-4.65514007 43.3821629 -4.65057737 41.85416798 -4.64648438 40.32617188 C-4.63546745 36.5832949 -4.61820912 32.84049252 -4.59765625 29.09765625 C-5.69078125 29.09765625 -6.78390625 29.09765625 -7.91015625 29.09765625 C-10.13932292 29.09765625 -12.36848958 29.09765625 -14.59765625 29.09765625 C-15.09265625 29.59265625 -15.09265625 29.59265625 -15.59765625 30.09765625 C-18.07808193 30.51331957 -20.56260612 30.86837322 -23.0546875 31.20703125 C-26.56549485 32.43662276 -27.58902342 33.97809635 -29.59765625 37.09765625 C-30.07386583 39.85226979 -30.33684454 42.25975069 -30.42578125 45.0234375 C-30.46451355 45.77102829 -30.50324585 46.51861908 -30.54315186 47.28886414 C-30.66211751 49.66217315 -30.75524732 52.03567981 -30.84765625 54.41015625 C-30.92407493 56.02547225 -31.00218187 57.64070933 -31.08203125 59.25585938 C-31.2766366 63.20269921 -31.43621686 67.14876379 -31.59765625 71.09765625 C-37.20765625 71.09765625 -42.81765625 71.09765625 -48.59765625 71.09765625 C-49.61865669 68.03465494 -49.68776534 66.09053691 -49.61938477 62.8918457 C-49.59928848 61.83097244 -49.5791922 60.77009918 -49.55848694 59.67707825 C-49.53145187 58.5332518 -49.50441681 57.38942535 -49.4765625 56.2109375 C-49.45295151 55.03879196 -49.42934052 53.86664642 -49.40501404 52.65898132 C-49.32834236 48.90925084 -49.24433269 45.15972505 -49.16015625 41.41015625 C-49.1069391 38.87045278 -49.05419868 36.33073927 -49.00195312 33.79101562 C-48.87272235 27.55976582 -48.73690957 21.32868981 -48.59765625 15.09765625 C-43.31765625 15.09765625 -38.03765625 15.09765625 -32.59765625 15.09765625 C-32.59765625 16.41765625 -32.59765625 17.73765625 -32.59765625 19.09765625 C-32.159375 18.73671875 -31.72109375 18.37578125 -31.26953125 18.00390625 C-25.26938489 13.61355525 -19.89684776 13.2801468 -12.59765625 14.09765625 C-12.10265625 14.59265625 -12.10265625 14.59265625 -11.59765625 15.09765625 C-9.26468192 15.13858562 -6.930604 15.14007348 -4.59765625 15.09765625 C-4.60925781 14.09863281 -4.62085938 13.09960938 -4.6328125 12.0703125 C-4.64183594 10.77996094 -4.65085937 9.48960937 -4.66015625 8.16015625 C-4.67175781 6.87238281 -4.68335938 5.58460938 -4.6953125 4.2578125 C-4.55688549 -0.22168547 -4.56678915 0.12396279 0 0 Z " fill="#0A2E4C" transform="translate(392.59765625,293.90234375)"/>
<path d="M0 0 C3.25 2.125 3.25 2.125 5 4 C5 4.66 5 5.32 5 6 C5.66 6 6.32 6 7 6 C7 6.66 7 7.32 7 8 C7.99 8.33 8.98 8.66 10 9 C9.66169502 11.93414515 9.09510447 12.91176418 6.890625 14.95703125 C6.01921875 15.56933594 5.1478125 16.18164062 4.25 16.8125 C3.38890625 17.43769531 2.5278125 18.06289063 1.640625 18.70703125 C-1 20 -1 20 -3.6640625 19.859375 C-6 19 -6 19 -8.625 16.4375 C-12.23149308 13.16999844 -15.8469506 13.5588115 -20.51171875 13.7265625 C-23.12809236 13.92563721 -23.12809236 13.92563721 -26 15 C-26.05325217 18.14187793 -26.06992072 20.11282701 -25 23 C-20.22837424 27.26235712 -13.44550153 29.02975852 -7.5078125 31.10546875 C2.35330014 34.62290613 7.43487472 39.86974945 12 49 C13.04600301 56.77030807 11.22854207 62.48920372 7 69 C2.40462177 74.39956942 -2.92855831 77.90647809 -10 79 C-23.53106254 79.95474651 -33.54809474 77.91768063 -44 69 C-45.84765625 67.08984375 -45.84765625 67.08984375 -47 65 C-46.93955403 61.72584331 -46.46716662 60.45365353 -44.109375 58.1640625 C-43.33078125 57.65617187 -42.5521875 57.14828125 -41.75 56.625 C-40.59757812 55.83996094 -40.59757812 55.83996094 -39.421875 55.0390625 C-36.42295223 53.75242789 -35.05968996 53.95850944 -32 55 C-29.94720004 56.60118397 -27.94348501 58.26776336 -26 60 C-21.54234308 62.97177128 -17.22542338 62.61705298 -12 62 C-9.09359282 60.68102444 -9.09359282 60.68102444 -8 58 C-7.75161619 54.40528996 -7.75161619 54.40528996 -9 51 C-12.46729698 48.39618045 -16.2848108 47.11553177 -20.33374023 45.70507812 C-29.97312573 42.3056475 -39.15746788 38.11544638 -44.125 28.5625 C-45.75716591 21.9172531 -45.92762526 15.25052096 -43.16015625 8.87890625 C-33.70605047 -6.43228864 -14.79838414 -6.5820347 0 0 Z " fill="#0C304E" transform="translate(163,288)"/>
<path d="M0 0 C4.84288686 3.87430949 8.35174724 9.23983907 10.3125 15.0625 C10.3125 19.6825 10.3125 24.3025 10.3125 29.0625 C-2.8875 29.3925 -16.0875 29.7225 -29.6875 30.0625 C-28.42437812 35.80975462 -28.42437812 35.80975462 -25.83203125 37.390625 C-19.51987085 39.36820531 -13.9130864 39.55273456 -7.6875 37.0625 C-7.15125 36.52625 -6.615 35.99 -6.0625 35.4375 C-4.6875 34.0625 -4.6875 34.0625 -2.37109375 33.7578125 C1.01133366 34.14184356 2.18095668 35.24273007 4.625 37.5625 C5.32238281 38.2121875 6.01976562 38.861875 6.73828125 39.53125 C7.25777344 40.0365625 7.77726563 40.541875 8.3125 41.0625 C5.09387333 47.90570626 0.06585836 51.18031359 -6.6875 54.0625 C-15.02942843 56.84314281 -25.81448522 55.874171 -33.6875 52.0625 C-40.46964288 48.67142856 -44.54462219 42.35535125 -47.8671875 35.69921875 C-50.02128409 28.77533686 -49.82709193 19.6779152 -46.9375 13 C-46.21519768 11.67205587 -45.46766353 10.35729771 -44.6875 9.0625 C-44.171875 8.03125 -43.65625 7 -43.125 5.9375 C-32.24102858 -6.90000475 -14.1674753 -8.45631042 0 0 Z M-26.8125 10.75 C-29.12541833 13.23606336 -29.12541833 13.23606336 -29.6875 18.0625 C-22.0975 18.0625 -14.5075 18.0625 -6.6875 18.0625 C-7.3475 16.0825 -8.0075 14.1025 -8.6875 12.0625 C-9.3475 12.0625 -10.0075 12.0625 -10.6875 12.0625 C-10.6875 11.4025 -10.6875 10.7425 -10.6875 10.0625 C-15.56427188 7.62411406 -22.15819637 8.23667604 -26.8125 10.75 Z " fill="#0A2F4C" transform="translate(529.6875,311.9375)"/>
<path d="M0 0 C7.30441899 0.23431191 12.70828789 2.4725496 18.42578125 7.02734375 C25.88707294 15.73218405 24.58841031 29.05011694 24.55615234 39.82055664 C24.55073338 41.98395602 24.55615359 44.14715333 24.5625 46.31054688 C24.56184023 47.68359421 24.56056118 49.05664142 24.55859375 50.4296875 C24.55746582 51.67226318 24.55633789 52.91483887 24.55517578 54.19506836 C24.42578125 57.02734375 24.42578125 57.02734375 23.42578125 58.02734375 C20.56310558 58.10059543 17.72506225 58.1197258 14.86328125 58.08984375 C14.05697266 58.08533203 13.25066406 58.08082031 12.41992188 58.07617188 C10.42184369 58.06434893 8.42380342 58.04641289 6.42578125 58.02734375 C6.42578125 57.36734375 6.42578125 56.70734375 6.42578125 56.02734375 C5.90371094 56.31609375 5.38164062 56.60484375 4.84375 56.90234375 C-1.85989711 60.28351778 -8.27577329 61.41171202 -15.65234375 59.484375 C-20.59666391 57.5388925 -24.33122542 54.78467915 -27.38671875 50.46484375 C-29.35066871 44.77972543 -29.66188635 38.80693872 -27.44921875 33.15234375 C-21.39807833 26.29438461 -14.69796811 22.92182898 -5.57421875 22.02734375 C-1.90577396 21.95611181 1.75726229 21.96859523 5.42578125 22.02734375 C4.76578125 20.04734375 4.10578125 18.06734375 3.42578125 16.02734375 C-4.93060024 15.56876184 -10.28913446 15.92120533 -17.57421875 20.02734375 C-19.6796875 19.85546875 -19.6796875 19.85546875 -21.57421875 19.02734375 C-23.67090943 15.05860781 -24.57421875 12.54295649 -24.57421875 8.02734375 C-16.26074355 3.55534796 -9.59798217 0.10195125 0 0 Z M-11.57421875 38.02734375 C-12.49106505 41.07109108 -12.49106505 41.07109108 -11.57421875 44.02734375 C-9.28630812 46.31525438 -7.60896383 46.98315535 -4.37890625 47.12109375 C-0.71683309 46.87937275 1.83314344 46.38870827 4.98828125 44.46484375 C7.10817174 40.87024683 6.70130325 38.1601737 6.42578125 34.02734375 C-3.51172719 33.16658886 -3.51172719 33.16658886 -11.57421875 38.02734375 Z " fill="#0C2F4E" transform="translate(307.57421875,306.97265625)"/>
<path d="M0 0 C1.58206057 0.00667536 3.16410534 0.0186375 4.74609375 0.03515625 C5.55240234 0.03966797 6.35871094 0.04417969 7.18945312 0.04882812 C9.18753131 0.06065107 11.18557158 0.07858711 13.18359375 0.09765625 C13.27681933 7.73057953 13.34762261 15.36344279 13.39084244 22.99680805 C13.41159994 26.54243076 13.43969606 30.08766019 13.48535156 33.63305664 C13.5376633 37.72155241 13.55663651 41.8096437 13.57421875 45.8984375 C13.59486389 47.15409012 13.61550903 48.40974274 13.63677979 49.70344543 C13.63903645 58.66974696 12.30248619 66.99157257 7.12109375 74.53515625 C0.78834924 80.05946529 -6.89771969 81.77274282 -15.17578125 81.41796875 C-22.17601077 80.56882848 -27.29157554 78.75369464 -31.81640625 73.09765625 C-32.14640625 72.10765625 -32.47640625 71.11765625 -32.81640625 70.09765625 C-31.55859375 68.08984375 -31.55859375 68.08984375 -29.69140625 65.97265625 C-29.09070313 65.26882813 -28.49 64.565 -27.87109375 63.83984375 C-25.47077513 61.8045926 -23.92795594 61.35526832 -20.81640625 61.09765625 C-19.14672653 61.75674035 -17.4803267 62.42416464 -15.81640625 63.09765625 C-12.19076811 63.43146439 -12.19076811 63.43146439 -8.81640625 63.09765625 C-5.34010792 59.62135792 -5.68831198 55.21331734 -5.62695312 50.49707031 C-5.6102356 49.3995343 -5.59351807 48.30199829 -5.57629395 47.17120361 C-5.56271851 45.99708923 -5.54914307 44.82297485 -5.53515625 43.61328125 C-5.51674683 42.40194519 -5.4983374 41.19060913 -5.47937012 39.94256592 C-5.40068499 34.76079115 -5.33268879 29.57889023 -5.26416016 24.39697266 C-5.21260927 20.61483989 -5.15531647 16.83282499 -5.09765625 13.05078125 C-5.08408081 11.86856995 -5.07050537 10.68635864 -5.05651855 9.46832275 C-5.03980103 8.38339539 -5.0230835 7.29846802 -5.00585938 6.18066406 C-4.98706726 4.74101288 -4.98706726 4.74101288 -4.96789551 3.27227783 C-4.70405894 -0.51508447 -4.00197558 0.1024047 0 0 Z " fill="#0A304D" transform="translate(457.81640625,285.90234375)"/>
<path d="M0 0 C0.33 0.99 0.66 1.98 1 3 C1.99 3 2.98 3 4 3 C4.33 2.01 4.66 1.02 5 0 C5 1.98 5 3.96 5 6 C9.95 6 14.9 6 20 6 C20.495 8.97 20.495 8.97 21 12 C16.05 12 11.1 12 6 12 C6 13.98 6 15.96 6 18 C10.95 18 15.9 18 21 18 C20.505 20.475 20.505 20.475 20 23 C16.68629 25.20914 15.6553979 25.22481553 11.8125 25.125 C10.91144531 25.10695313 10.01039063 25.08890625 9.08203125 25.0703125 C8.39496094 25.04710937 7.70789063 25.02390625 7 25 C6.84740538 33.85048778 10.96821759 39.35544266 15.84716797 46.34643555 C20.36821725 52.83120192 20.36821725 52.83120192 22.25 56.3125 C25.08732664 59.04849355 28.14305149 58.74708534 32 59 C31.67 60.98 31.34 62.96 31 65 C22.39772711 67.71061203 11.47101195 67.29079176 3.375 63.4375 C-6.27045507 57.75827714 -12.39308142 49.99593081 -15.55566406 39.08251953 C-17.81157133 28.50950361 -16.56261012 17.29094903 -12.58203125 7.37109375 C-10.67258463 4.50928116 -9.27968731 3.88399865 -6 3 C-5.34 3 -4.68 3 -4 3 C-3.67 3.99 -3.34 4.98 -3 6 C-2.01 6.33 -1.02 6.66 0 7 C0 4.69 0 2.38 0 0 Z " fill="#F8D939" transform="translate(768,246)"/>
<path d="M0 0 C0 1.98 0 3.96 0 6 C0.66644531 5.9278125 1.33289063 5.855625 2.01953125 5.78125 C8.70510535 5.10801736 15.2830148 4.88306989 22 5 C22 5.33 22 5.66 22 6 C21.27522461 6.07516846 20.55044922 6.15033691 19.80371094 6.2277832 C16.45148175 6.5805512 13.10080504 6.94646097 9.75 7.3125 C8.61046875 7.43044922 7.4709375 7.54839844 6.296875 7.66992188 C-6.44734407 8.56156909 -6.44734407 8.56156909 -17.84082031 13.4387207 C-19.27068451 15.01960481 -19.27068451 15.01960481 -18.875 17.5625 C-18.15610832 20.3261611 -18.15610832 20.3261611 -15 22 C-12.20437115 22.31291631 -12.20437115 22.31291631 -8.98262024 22.2784729 C-7.72478729 22.28963638 -6.46695435 22.30079987 -5.17100525 22.31230164 C-3.77456695 22.31466667 -2.37812832 22.31684231 -0.98168945 22.31884766 C0.48672031 22.32814437 1.95512478 22.33831266 3.42352295 22.34928894 C7.41287624 22.37663205 11.40219414 22.39175107 15.39161658 22.40471697 C19.55968784 22.42032869 23.72768661 22.44712512 27.89570618 22.4727478 C35.78979816 22.51957035 43.68390373 22.5562976 51.57806379 22.58942068 C60.56470601 22.62761754 69.5512755 22.67703406 78.53785646 22.72740483 C97.02518444 22.83077636 115.51255678 22.92001976 134 23 C134 23.33 134 23.66 134 24 C133.26100495 24.00423194 132.52200991 24.00846388 131.76062107 24.01282406 C113.75682988 24.11625019 95.75307714 24.22490551 77.74935246 24.33933926 C69.04279445 24.3945538 60.33623235 24.44801604 51.62963867 24.49731445 C44.038593 24.5403009 36.44757605 24.58661456 28.85657495 24.63687855 C24.83938581 24.66336346 20.82220193 24.68821278 16.80497932 24.70907402 C13.01867803 24.72878876 9.23243082 24.75297475 5.44617844 24.78049088 C4.06155705 24.78978337 2.67692387 24.79748592 1.29228401 24.80341911 C-10.48780844 23.93172232 -10.48780844 23.93172232 -21 27 C-21.10763675 28.4290161 -21.1468064 29.86326126 -21.15821838 31.29627991 C-21.17290161 32.68667732 -21.17290161 32.68667732 -21.18788147 34.10516357 C-21.19363693 35.13014954 -21.1993924 36.1551355 -21.20532227 37.21118164 C-21.22017166 38.82073982 -21.22017166 38.82073982 -21.23532104 40.46281433 C-21.26704374 44.02857212 -21.29173588 47.59434325 -21.31640625 51.16015625 C-21.33696649 53.62495785 -21.3579627 56.08975586 -21.37937927 58.55455017 C-21.43469605 65.05649915 -21.48406282 71.55848046 -21.53222656 78.06048584 C-21.5818404 84.68944549 -21.63809412 91.3183511 -21.69335938 97.94726562 C-21.80105837 110.9648032 -21.90266631 123.98238101 -22 137 C-22.639375 136.814375 -23.27875 136.62875 -23.9375 136.4375 C-24.618125 136.293125 -25.29875 136.14875 -26 136 C-27.41577477 137.18424326 -27.41577477 137.18424326 -27.0625 140.5625 C-27.0315625 142.2640625 -27.0315625 142.2640625 -27 144 C-26.34 144.33 -25.68 144.66 -25 145 C-24.375 147.5625 -24.375 147.5625 -24 150 C-25.86097622 149.77021694 -25.86097622 149.77021694 -28 149 C-32.41858778 142.39813997 -32.54826235 134.837657 -32.40991211 127.17553711 C-32.40556152 126.03761215 -32.40121094 124.89968719 -32.39672852 123.72727966 C-32.3770733 119.99351246 -32.32801062 116.26080886 -32.27734375 112.52734375 C-32.25503039 109.91761892 -32.23410179 107.30788192 -32.2144928 104.69813538 C-32.17035138 99.2401903 -32.10988655 93.78261456 -32.03930664 88.32495117 C-31.95815018 82.0356851 -31.90185204 75.74657387 -31.85910028 69.45693773 C-31.81729329 63.37845078 -31.75871256 57.30025636 -31.69256783 51.22198677 C-31.66589494 48.64770873 -31.64321114 46.07338607 -31.62464714 43.49903679 C-31.59609113 39.89737528 -31.54852072 36.2964476 -31.49584961 32.69506836 C-31.49100052 31.63974915 -31.48615143 30.58442993 -31.4811554 29.49713135 C-31.36422741 23.17296008 -30.49665533 17.83126468 -28 12 C-27.7060884 11.30125731 -27.4121768 10.60251463 -27.10935879 9.88259792 C-25.19835798 6.63960189 -21.77332728 5.35978413 -18.5 3.75 C-17.78328125 3.39228516 -17.0665625 3.03457031 -16.328125 2.66601562 C-10.82433217 0.06755228 -6.1035635 -1.05638599 0 0 Z " fill="#16466E" transform="translate(731,314)"/>
<path d="M0 0 C15.74188837 -0.04667656 31.48375812 -0.08196748 47.22569847 -0.10362434 C54.53460373 -0.11394632 61.84346605 -0.12802417 69.15234375 -0.15087891 C75.5211746 -0.17078467 81.88997435 -0.18370973 88.25883543 -0.18817699 C91.6325405 -0.19078916 95.00615661 -0.19694785 98.37983322 -0.21146011 C102.14178587 -0.22589009 105.90355167 -0.22798151 109.66552734 -0.22705078 C110.78977615 -0.23424133 111.91402496 -0.24143188 113.07234192 -0.24884033 C114.09320389 -0.246091 115.11406586 -0.24334167 116.16586304 -0.24050903 C117.05631506 -0.24235262 117.94676708 -0.24419621 118.8642025 -0.24609566 C121 0 121 0 123 2 C116.16653045 5.24417241 109.1923502 7.68187733 102 10 C101.3201001 10.24065186 100.6402002 10.48130371 99.93969727 10.72924805 C72.36240137 20.37486321 38.30958009 18.38538448 11.4375 7.4375 C6.31202618 5.42131836 1.40919885 4.0084947 -4 3 C-2.68 2.67 -1.36 2.34 0 2 C0 1.34 0 0.68 0 0 Z " fill="#D2EDFA" transform="translate(737,470)"/>
<path d="M0 0 C5.12334463 2.81544546 7.77183479 6.64720662 10 12 C10.88721733 18.37317779 11.19164921 24.9539988 7.8125 30.625 C6.40625 32.4453125 6.40625 32.4453125 5 34 C4.278125 34.825 3.55625 35.65 2.8125 36.5 C-1.42117984 38.75796258 -5.30424305 38.62765068 -10 38 C-14.61626897 36.19363388 -16.57422938 33.24509859 -19 29 C-20.95357966 22.98503104 -21.11212249 15.08853529 -18.9375 9.125 C-14.31759419 1.67353902 -9.01277416 -2.17000983 0 0 Z " fill="#0F3E63" transform="translate(830,372)"/>
<path d="M0 0 C5.61845552 3.30096433 9.31126075 7.66722783 11 14 C11.85780376 21.24246976 11.18700756 26.94098564 7 33 C4.61149338 35.82278056 3.51943871 36.82685376 0 38 C-1.47586615 38.11687338 -2.95706612 38.17501742 -4.4375 38.1875 C-5.58025391 38.20876953 -5.58025391 38.20876953 -6.74609375 38.23046875 C-10.11163716 37.88633173 -12.18904495 36.90713301 -14.44921875 34.37890625 C-14.85785156 33.77949219 -15.26648438 33.18007813 -15.6875 32.5625 C-16.10386719 31.96566406 -16.52023437 31.36882812 -16.94921875 30.75390625 C-20.41107146 24.97557218 -19.60045331 17.48354639 -19 11 C-17.46713376 6.66853981 -15.14253234 4.0155843 -11.75 1 C-7.68222158 -0.47919215 -4.25589326 -0.98430809 0 0 Z " fill="#0E3D62" transform="translate(762,372)"/>
<path d="M0 0 C1.34888732 0.00015905 2.69778075 0.00584927 4.04663086 0.01586914 C5.10991859 0.01799156 5.10991859 0.01799156 6.19468689 0.02015686 C8.46699173 0.02577096 10.73919936 0.03832576 13.01147461 0.05102539 C14.54858257 0.05603858 16.08569206 0.0606018 17.62280273 0.06469727 C21.39823103 0.07574497 25.17358632 0.09301898 28.94897461 0.11352539 C28.94897461 2.09352539 28.94897461 4.07352539 28.94897461 6.11352539 C25.64897461 6.44352539 22.34897461 6.77352539 18.94897461 7.11352539 C18.61897461 8.76352539 18.28897461 10.41352539 17.94897461 12.11352539 C21.24897461 12.11352539 24.54897461 12.11352539 27.94897461 12.11352539 C27.94897461 14.09352539 27.94897461 16.07352539 27.94897461 18.11352539 C24.97897461 18.11352539 22.00897461 18.11352539 18.94897461 18.11352539 C19.05209961 19.16540039 19.15522461 20.21727539 19.26147461 21.30102539 C18.94897461 25.11352539 18.94897461 25.11352539 16.82397461 27.98852539 C13.71775922 30.28442372 11.76033599 30.84761646 7.94897461 31.11352539 C9.58514795 36.08048017 12.46647159 40.00753273 15.44897461 44.23852539 C16.4386053 45.6577632 17.42819041 47.0770328 18.41772461 48.49633789 C18.85536133 49.11911621 19.29299805 49.74189453 19.74389648 50.38354492 C22.94897461 54.98467612 22.94897461 54.98467612 22.94897461 58.11352539 C19.54756907 58.47017762 16.34128606 58.60856316 12.94897461 58.11352539 C10.55763869 55.98211729 9.46026716 54.77009433 7.94897461 52.11352539 C7.02084961 50.53571289 7.02084961 50.53571289 6.07397461 48.92602539 C5.76202148 48.34208008 5.45006836 47.75813477 5.12866211 47.15649414 C3.91266712 44.98172218 3.91266712 44.98172218 2.14428711 42.53930664 C-2.14982097 36.35682573 -3.91712706 32.66098276 -3.05102539 25.11352539 C-2.36395508 25.07614258 -1.67688477 25.03875977 -0.96899414 25.00024414 C-0.06793945 24.93450195 0.83311523 24.86875977 1.76147461 24.80102539 C2.65479492 24.74301758 3.54811523 24.68500977 4.46850586 24.62524414 C7.30872999 24.03930814 8.22410402 23.40428413 9.94897461 21.11352539 C10.27897461 20.12352539 10.60897461 19.13352539 10.94897461 18.11352539 C5.99897461 18.11352539 1.04897461 18.11352539 -4.05102539 18.11352539 C-4.05102539 16.13352539 -4.05102539 14.15352539 -4.05102539 12.11352539 C0.89897461 12.11352539 5.84897461 12.11352539 10.94897461 12.11352539 C10.61897461 10.13352539 10.28897461 8.15352539 9.94897461 6.11352539 C5.32897461 6.11352539 0.70897461 6.11352539 -4.05102539 6.11352539 C-4.05102539 0.15073432 -4.05102539 0.15073432 0 0 Z " fill="#10355B" transform="translate(778.051025390625,245.886474609375)"/>
<path d="M0 0 C1.56488159 0.01498535 1.56488159 0.01498535 3.16137695 0.03027344 C5.12917114 0.08489746 5.12917114 0.08489746 7.13671875 0.140625 C13.41703125 0.264375 13.41703125 0.264375 19.82421875 0.390625 C19.82421875 9.630625 19.82421875 18.870625 19.82421875 28.390625 C15.98253601 30.31146637 11.30045686 29.6624881 7.07421875 29.703125 C6.08421875 29.73212891 5.09421875 29.76113281 4.07421875 29.79101562 C-2.02766313 29.84404 -5.51253618 29.42850111 -10.17578125 25.390625 C-12.48939302 23.07701323 -11.50333821 17.6813308 -11.55078125 14.578125 C-11.58816406 13.66224609 -11.62554688 12.74636719 -11.6640625 11.80273438 C-11.67566406 10.91779297 -11.68726563 10.03285156 -11.69921875 9.12109375 C-11.71903809 8.31051514 -11.73885742 7.49993652 -11.75927734 6.66479492 C-10.26477899 0.84000323 -5.33116644 -0.10504761 0 0 Z " fill="#3BAAF0" transform="translate(874.17578125,385.609375)"/>
<path d="M0 0 C2.6875 0.375 2.6875 0.375 5 2.75 C6.6875 5.375 6.6875 5.375 6.6875 7.375 C7.863125 7.8390625 7.863125 7.8390625 9.0625 8.3125 C11.6875 9.375 11.6875 9.375 13.6875 10.375 C23.34648534 11.02644908 30.35507534 10.9277806 38.0625 4.8125 C40.69359589 2.65541108 40.69359589 2.65541108 41.6875 0.375 C44.1625 0.87 44.1625 0.87 46.6875 1.375 C47.26501406 5.32134607 46.82561526 7.7718864 44.5 10.9375 C38.28273032 17.48965774 29.25640667 19.64668806 20.5 20 C12.64593997 19.69388407 6.34138204 17.19388947 0.6875 11.6875 C0.0275 10.924375 -0.6325 10.16125 -1.3125 9.375 C-1.9725 8.715 -2.6325 8.055 -3.3125 7.375 C-3.5 4.3125 -3.5 4.3125 -3.3125 1.375 C-2.3125 0.375 -2.3125 0.375 0 0 Z " fill="#0C4169" transform="translate(769.3125,417.625)"/>
<path d="M0 0 C1.34888732 0.00015905 2.69778075 0.00584927 4.04663086 0.01586914 C5.10991859 0.01799156 5.10991859 0.01799156 6.19468689 0.02015686 C8.46699173 0.02577096 10.73919936 0.03832576 13.01147461 0.05102539 C14.54858257 0.05603858 16.08569206 0.0606018 17.62280273 0.06469727 C21.39823103 0.07574497 25.17358632 0.09301898 28.94897461 0.11352539 C28.94897461 2.09352539 28.94897461 4.07352539 28.94897461 6.11352539 C25.64897461 6.44352539 22.34897461 6.77352539 18.94897461 7.11352539 C18.61897461 8.76352539 18.28897461 10.41352539 17.94897461 12.11352539 C21.24897461 12.11352539 24.54897461 12.11352539 27.94897461 12.11352539 C27.94897461 12.44352539 27.94897461 12.77352539 27.94897461 13.11352539 C23.65897461 13.11352539 19.36897461 13.11352539 14.94897461 13.11352539 C14.94897461 10.80352539 14.94897461 8.49352539 14.94897461 6.11352539 C8.67897461 6.11352539 2.40897461 6.11352539 -4.05102539 6.11352539 C-4.05102539 0.15073432 -4.05102539 0.15073432 0 0 Z " fill="#193D5B" transform="translate(778.051025390625,245.886474609375)"/>
<path d="M0 0 C5.61 0 11.22 0 17 0 C16.67 0.99 16.34 1.98 16 3 C9.07 2.505 9.07 2.505 2 2 C2 27.74 2 53.48 2 80 C1.01 80.495 1.01 80.495 0 81 C0 54.27 0 27.54 0 0 Z " fill="#051D39" transform="translate(551,284)"/>
<path d="M0 0 C0.33 0 0.66 0 1 0 C1.02505615 0.57443848 1.0501123 1.14887695 1.07592773 1.74072266 C1.19269875 4.36899721 1.31505419 6.99698395 1.4375 9.625 C1.47681641 10.52863281 1.51613281 11.43226563 1.55664062 12.36328125 C1.82820786 18.08708288 2.17546725 23.52640174 4 29 C3.00390625 31.26171875 3.00390625 31.26171875 1.5625 33.6875 C1.08941406 34.49574219 0.61632812 35.30398438 0.12890625 36.13671875 C-0.24363281 36.75160156 -0.61617187 37.36648438 -1 38 C-1.99 37.67 -2.98 37.34 -4 37 C-3.34 37 -2.68 37 -2 37 C-2 36.34 -2 35.68 -2 35 C-2.99 35 -3.98 35 -5 35 C-5.33 34.34 -5.66 33.68 -6 33 C-6.66 32.67 -7.32 32.34 -8 32 C-7.57847656 31.18015625 -7.15695312 30.3603125 -6.72265625 29.515625 C-5.90087891 27.89914062 -5.90087891 27.89914062 -5.0625 26.25 C-4.51722656 25.18265625 -3.97195313 24.1153125 -3.41015625 23.015625 C-1.05586236 17.98095773 -0.73422002 13.25634521 -0.4375 7.75 C-0.37272461 6.63238281 -0.37272461 6.63238281 -0.30664062 5.4921875 C-0.20103275 3.661651 -0.10005799 1.83084824 0 0 Z " fill="#17415F" transform="translate(825,267)"/>
<path d="M0 0 C15.74188837 -0.04667656 31.48375812 -0.08196748 47.22569847 -0.10362434 C54.53460373 -0.11394632 61.84346605 -0.12802417 69.15234375 -0.15087891 C75.5211746 -0.17078467 81.88997435 -0.18370973 88.25883543 -0.18817699 C91.6325405 -0.19078916 95.00615661 -0.19694785 98.37983322 -0.21146011 C102.14178587 -0.22589009 105.90355167 -0.22798151 109.66552734 -0.22705078 C110.78977615 -0.23424133 111.91402496 -0.24143188 113.07234192 -0.24884033 C114.09320389 -0.246091 115.11406586 -0.24334167 116.16586304 -0.24050903 C117.05631506 -0.24235262 117.94676708 -0.24419621 118.8642025 -0.24609566 C121 0 121 0 123 2 C121.68 2.33 120.36 2.66 119 3 C119 2.34 119 1.68 119 1 C79.73 1 40.46 1 0 1 C0 0.67 0 0.34 0 0 Z " fill="#7E98B3" transform="translate(737,470)"/>
<path d="M0 0 C2.95013481 0.51627359 3.71846926 1.07435187 5.5 3.4375 C5.609375 5.6640625 5.609375 5.6640625 5.25 8.0625 C5.14171875 8.85914063 5.0334375 9.65578125 4.921875 10.4765625 C4.5 12.4375 4.5 12.4375 3.5 13.4375 C0.0625 13.6875 0.0625 13.6875 -3.5 13.4375 C-5.82579101 9.94881349 -5.91865457 8.54031481 -5.5 4.4375 C-3.9991531 1.43580621 -3.33569239 0.58374617 0 0 Z " fill="#F3F7F6" transform="translate(759.5,378.5625)"/>
<path d="M0 0 C1.57922406 1.57922406 1.207659 3.19443874 1.25 5.375 C1.28867187 6.56222656 1.28867187 6.56222656 1.328125 7.7734375 C1 10 1 10 -0.35546875 11.796875 C-2 13 -2 13 -4.5625 12.875 C-7 12 -7 12 -9 9 C-9.53938356 2.95890411 -9.53938356 2.95890411 -7.875 0 C-5.042116 -1.51087147 -3.01987426 -0.78779328 0 0 Z " fill="#EEF4F6" transform="translate(831,380)"/>
<path d="M0 0 C0.66 0.66 1.32 1.32 2 2 C2.66 1.67 3.32 1.34 4 1 C5.30071873 8.22621515 5.51116165 15.79221687 4 23 C1.94921875 24.91796875 1.94921875 24.91796875 0 26 C-0.99259618 23.02221146 -1.12891582 21.03757049 -1.1328125 17.9296875 C-1.13410156 16.95128906 -1.13539063 15.97289062 -1.13671875 14.96484375 C-1.13285156 13.94519531 -1.12898437 12.92554688 -1.125 11.875 C-1.12886719 10.84761719 -1.13273438 9.82023437 -1.13671875 8.76171875 C-1.13542969 7.78589844 -1.13414062 6.81007813 -1.1328125 5.8046875 C-1.13168457 4.90733887 -1.13055664 4.00999023 -1.12939453 3.08544922 C-1 1 -1 1 0 0 Z " fill="#0F3C61" transform="translate(747,258)"/>
<path d="M0 0 C1.51400391 0.01740234 1.51400391 0.01740234 3.05859375 0.03515625 C4.07050781 0.04417969 5.08242188 0.05320313 6.125 0.0625 C7.29869141 0.07990234 7.29869141 0.07990234 8.49609375 0.09765625 C8.82609375 2.07765625 9.15609375 4.05765625 9.49609375 6.09765625 C4.54609375 6.09765625 -0.40390625 6.09765625 -5.50390625 6.09765625 C-5.50390625 8.07765625 -5.50390625 10.05765625 -5.50390625 12.09765625 C-0.55390625 12.09765625 4.39609375 12.09765625 9.49609375 12.09765625 C9.49609375 12.42765625 9.49609375 12.75765625 9.49609375 13.09765625 C4.21609375 13.09765625 -1.06390625 13.09765625 -6.50390625 13.09765625 C-6.50390625 10.45765625 -6.50390625 7.81765625 -6.50390625 5.09765625 C-5.84390625 5.09765625 -5.18390625 5.09765625 -4.50390625 5.09765625 C-4.28734375 4.13859375 -4.28734375 4.13859375 -4.06640625 3.16015625 C-3.25720492 0.19308471 -3.14419004 0.12262832 0 0 Z " fill="#DFCC47" transform="translate(779.50390625,251.90234375)"/>
<path d="M0 0 C-0.3125 2.375 -0.3125 2.375 -1 5 C-4.63195496 7.42130331 -6.38349348 7.21022785 -10.6875 7.125 C-12.45673828 7.09792969 -12.45673828 7.09792969 -14.26171875 7.0703125 C-15.16535156 7.04710937 -16.06898438 7.02390625 -17 7 C-17.33 6.01 -17.66 5.02 -18 4 C-17.360625 3.87625 -16.72125 3.7525 -16.0625 3.625 C-15.0415625 3.315625 -15.0415625 3.315625 -14 3 C-13.67 2.34 -13.34 1.68 -13 1 C-8.63585999 0.14428627 -4.43923267 -0.10827397 0 0 Z " fill="#0B395D" transform="translate(799,429)"/>
<path d="M0 0 C0.33 0 0.66 0 1 0 C1.33 6.27 1.66 12.54 2 19 C3.32 19 4.64 19 6 19 C6 14.38 6 9.76 6 5 C6.33 5 6.66 5 7 5 C7.33 12.92 7.66 20.84 8 29 C7.34 29.33 6.68 29.66 6 30 C5.67 29.01 5.34 28.02 5 27 C4.01 27 3.02 27 2 27 C0.3628526 23.40564006 -0.24140626 20.64023532 -0.1953125 16.69921875 C-0.18886719 15.72275391 -0.18242188 14.74628906 -0.17578125 13.74023438 C-0.15902344 12.73283203 -0.14226563 11.72542969 -0.125 10.6875 C-0.11597656 9.66076172 -0.10695313 8.63402344 -0.09765625 7.57617188 C-0.07416201 5.05054101 -0.04131131 2.5253919 0 0 Z " fill="#284E61" transform="translate(745,262)"/>
<path d="M0 0 C0.33 0 0.66 0 1 0 C1 10.23 1 20.46 1 31 C0.34 31.33 -0.32 31.66 -1 32 C-2.95031692 27.92276266 -3.21581971 24.68307578 -3.125 20.1875 C-3.10695313 19.02605469 -3.08890625 17.86460937 -3.0703125 16.66796875 C-3.04710937 15.78753906 -3.02390625 14.90710938 -3 14 C-2.01 14.495 -2.01 14.495 -1 15 C-0.67 10.05 -0.34 5.1 0 0 Z " fill="#061624" transform="translate(331,333)"/>
<path d="M0 0 C2 2 2 2 2 6 C3.32 6 4.64 6 6 6 C6.12375 5.38125 6.2475 4.7625 6.375 4.125 C7 2 7 2 9 0 C8.51592357 5.44585987 8.51592357 5.44585987 6.3125 7.8125 C3.55125763 9.23043527 1.06991457 9.65114607 -2 10 C-2.33 8.68 -2.66 7.36 -3 6 C-6.3 5.67 -9.6 5.34 -13 5 C-13 4.67 -13 4.34 -13 4 C-12.31292969 3.96261719 -11.62585938 3.92523438 -10.91796875 3.88671875 C-10.01691406 3.82097656 -9.11585938 3.75523437 -8.1875 3.6875 C-7.29417969 3.62949219 -6.40085937 3.57148438 -5.48046875 3.51171875 C-2.69396 2.93686419 -1.75864246 2.1793144 0 0 Z " fill="#183759" transform="translate(788,267)"/>
<path d="M0 0 C-0.99 0 -1.98 0 -3 0 C-2.67 0.99 -2.34 1.98 -2 3 C-1.34 3.33 -0.68 3.66 0 4 C0 4.66 0 5.32 0 6 C1.32 6 2.64 6 4 6 C4 7.32 4 8.64 4 10 C3.34 10 2.68 10 2 10 C2 10.66 2 11.32 2 12 C-2.21543758 10.49448658 -3.86049125 7.82055134 -6 4 C-6 2.68 -6 1.36 -6 0 C-3.50907189 -1.24546405 -2.58919267 -0.7767578 0 0 Z " fill="#F4D73C" transform="translate(792,277)"/>
<path d="M0 0 C1.03115279 3.26913624 0.9638984 5.86041348 0.5625 9.25 C0.46066406 10.14203125 0.35882813 11.0340625 0.25390625 11.953125 C0.17011719 12.62859375 0.08632813 13.3040625 0 14 C-0.33 13.34 -0.66 12.68 -1 12 C-2.65 12.66 -4.3 13.32 -6 14 C-5.93999894 12.3739713 -5.8512115 10.74898451 -5.75 9.125 C-5.70359375 8.22007812 -5.6571875 7.31515625 -5.609375 6.3828125 C-5 4 -5 4 -3.015625 2.8046875 C-2.35046875 2.53914063 -1.6853125 2.27359375 -1 2 C-0.67 1.34 -0.34 0.68 0 0 Z " fill="#183F5A" transform="translate(379,308)"/>
<path d="M0 0 C0.763125 0.0825 1.52625 0.165 2.3125 0.25 C0.9925 0.58 -0.3275 0.91 -1.6875 1.25 C-1.6875 2.9 -1.6875 4.55 -1.6875 6.25 C-0.6975 6.25 0.2925 6.25 1.3125 6.25 C-0.5625 11 -0.5625 11 -1.6875 13.25 C-2.6775 12.92 -3.6675 12.59 -4.6875 12.25 C-6.09207737 9.44084526 -5.93645157 7.36189466 -5.6875 4.25 C-4.11925384 1.11350768 -3.54118585 0.32941264 0 0 Z " fill="#DCE5E9" transform="translate(759.6875,378.75)"/>
<path d="M0 0 C1.22879883 0.00773437 1.22879883 0.00773437 2.48242188 0.015625 C8.50229818 0.09489909 8.50229818 0.09489909 10.8125 1.25 C10.8125 1.91 10.8125 2.57 10.8125 3.25 C9.8946875 3.15460938 8.976875 3.05921875 8.03125 2.9609375 C-1.24151515 2.12327174 -8.24444692 1.78915101 -16.1875 7.25 C-13.32678077 -0.29189615 -6.99599117 -0.17866857 0 0 Z " fill="#071F3F" transform="translate(585.1875,307.75)"/>
<path d="M0 0 C1.32 0 2.64 0 4 0 C4.05422947 1.4370809 4.09289723 2.87475462 4.125 4.3125 C4.14820313 5.11300781 4.17140625 5.91351563 4.1953125 6.73828125 C4 9 4 9 2 12 C1.34 12 0.68 12 0 12 C0 8.04 0 4.08 0 0 Z " fill="#3DA2E2" transform="translate(884,423)"/>
<path d="M0 0 C3.63 0 7.26 0 11 0 C10.01 0.495 10.01 0.495 9 1 C9 1.99 9 2.98 9 4 C4.545 4.495 4.545 4.495 0 5 C0 3.35 0 1.7 0 0 Z " fill="#173B5A" transform="translate(382,318)"/>
<path d="M0 0 C0 0.66 0 1.32 0 2 C-2.31 3.32 -4.62 4.64 -7 6 C-7.40749675 10.25731568 -7.40749675 10.25731568 -5.5 13.875 C-5.005 14.24625 -4.51 14.6175 -4 15 C-7 15 -7 15 -10 13 C-10.5 9.6875 -10.5 9.6875 -10 6 C-6.93839699 2.29384898 -4.89415724 0 0 0 Z " fill="#0C2843" transform="translate(304,339)"/>
<path d="M0 0 C0.66 0 1.32 0 2 0 C1.67 1.32 1.34 2.64 1 4 C-0.01320313 4.18175781 -0.01320313 4.18175781 -1.046875 4.3671875 C-2.38492187 4.61855469 -2.38492187 4.61855469 -3.75 4.875 C-4.63171875 5.03742188 -5.5134375 5.19984375 -6.421875 5.3671875 C-8.86947744 5.96796264 -10.80599857 6.77997117 -13 8 C-11.125 3.125 -11.125 3.125 -10 2 C-7.68182911 1.67902249 -5.36220643 1.48779044 -3.03125 1.28125 C-1.00819407 1.20934163 -1.00819407 1.20934163 0 0 Z " fill="#0B2841" transform="translate(376,320)"/>
<path d="M0 0 C3.3 0 6.6 0 10 0 C10 0.66 10 1.32 10 2 C9.38511719 2.13277344 8.77023438 2.26554687 8.13671875 2.40234375 C6.92435547 2.66724609 6.92435547 2.66724609 5.6875 2.9375 C4.88699219 3.11152344 4.08648437 3.28554688 3.26171875 3.46484375 C0.854599 3.99886159 0.854599 3.99886159 -2 5 C-2 6.32 -2 7.64 -2 9 C-2.66 9 -3.32 9 -4 9 C-3.67 7.35 -3.34 5.7 -3 4 C-2.34 4 -1.68 4 -1 4 C-0.67 2.68 -0.34 1.36 0 0 Z " fill="#0C2441" transform="translate(139,298)"/>
<path d="M0 0 C-3.90691374 5.11940422 -7.49037742 5.83414946 -13.76953125 6.73828125 C-14.87361328 6.86783203 -14.87361328 6.86783203 -16 7 C-11.37744699 1.84407548 -6.98985451 -0.49927532 0 0 Z " fill="#1E4B6C" transform="translate(780,226)"/>
<path d="M0 0 C4.78356477 0.57982603 7.99679066 2.43190344 12 5 C14.30163882 8.45245824 14.34490322 9.94738713 14 14 C13.34 14.66 12.68 15.32 12 16 C11.91363281 15.38511719 11.82726562 14.77023437 11.73828125 14.13671875 C10.94749897 8.94487716 10.94749897 8.94487716 7.6875 5.0625 C6.800625 4.711875 5.91375 4.36125 5 4 C3.6078125 3.4121875 3.6078125 3.4121875 2.1875 2.8125 C1.465625 2.544375 0.74375 2.27625 0 2 C0 1.34 0 0.68 0 0 Z " fill="#09253E" transform="translate(144,332)"/>
<path d="M0 0 C2.97 0 5.94 0 9 0 C9 0.33 9 0.66 9 1 C6.69 1.33 4.38 1.66 2 2 C2.66 2.66 3.32 3.32 4 4 C2.875 6.875 2.875 6.875 1 10 C-2.1875 11.375 -2.1875 11.375 -5 12 C-4.360625 11.319375 -3.72125 10.63875 -3.0625 9.9375 C-0.6741507 6.53591161 -0.32122847 4.09566299 0 0 Z " fill="#D7C140" transform="translate(797,264)"/>
<path d="M0 0 C0.33 0 0.66 0 1 0 C1.33 7.59 1.66 15.18 2 23 C1.34 23.33 0.68 23.66 0 24 C0 23.34 0 22.68 0 22 C-0.66 22 -1.32 22 -2 22 C-1.84660156 21.18273437 -1.69320312 20.36546875 -1.53515625 19.5234375 C-0.9322218 15.55375228 -0.65842036 11.63053967 -0.4375 7.625 C-0.39431641 6.88894531 -0.35113281 6.15289062 -0.30664062 5.39453125 C-0.20156201 3.59651932 -0.10037907 1.79828042 0 0 Z " fill="#294A54" transform="translate(825,267)"/>
<path d="M0 0 C1.98 0 3.96 0 6 0 C6 1.65 6 3.3 6 5 C3.03 5 0.06 5 -3 5 C-2.67 4.34 -2.34 3.68 -2 3 C-1.34 3 -0.68 3 0 3 C0 2.01 0 1.02 0 0 Z " fill="#0A335F" transform="translate(800,246)"/>
<path d="M0 0 C1.20508082 3.61524247 0.95808288 5.4071892 0 9 C0 8.34 0 7.68 0 7 C-0.66 7 -1.32 7 -2 7 C-3.03013277 8.64821244 -4.03114628 10.31503702 -5 12 C-5.33 12 -5.66 12 -6 12 C-6.375 9.9375 -6.375 9.9375 -6 7 C-4.20822891 4.46427718 -2.15761879 2.22825512 0 0 Z " fill="#123B63" transform="translate(761,236)"/>
<path d="M0 0 C0.66 0 1.32 0 2 0 C0.125 3.875 0.125 3.875 -1 5 C-6.62498715 5.44999897 -10.06143138 4.41889075 -15 2 C-11.25 0.875 -11.25 0.875 -9 2 C-5.5 2.25 -5.5 2.25 -2 2 C-1.34 1.34 -0.68 0.68 0 0 Z " fill="#07253D" transform="translate(451,347)"/>
<path d="M0 0 C2.15081449 0.75682346 4.29556819 1.53089087 6.4375 2.3125 C7.63246094 2.74175781 8.82742187 3.17101562 10.05859375 3.61328125 C11.02925781 4.07089844 11.99992188 4.52851563 13 5 C13.33 5.99 13.66 6.98 14 8 C12.35 8 10.7 8 9 8 C8.67 7.34 8.34 6.68 8 6 C6.34561387 5.30341637 4.67745682 4.63903117 3 4 C2.01 3.34 1.02 2.68 0 2 C0 1.34 0 0.68 0 0 Z " fill="#0D263F" transform="translate(150,317)"/>
<path d="M0 0 C6.3 -0.48461538 6.3 -0.48461538 9.4375 1.6875 C11.25953249 4.38410809 11.35430394 5.81126451 11 9 C10.484375 8.21625 9.96875 7.4325 9.4375 6.625 C6.4837677 3.44405752 4.18393452 2.88506307 0 2 C0 1.34 0 0.68 0 0 Z " fill="#0F2B44" transform="translate(304,319)"/>
<path d="M0 0 C0.99 0.33 1.98 0.66 3 1 C2.35550393 4.01217112 1.34977818 6.51655836 -0.0625 9.25 C-0.42472656 9.95640625 -0.78695312 10.6628125 -1.16015625 11.390625 C-1.43730469 11.92171875 -1.71445312 12.4528125 -2 13 C-2.33 13 -2.66 13 -3 13 C-3.125 9.625 -3.125 9.625 -3 6 C-2.34 5.34 -1.68 4.68 -1 4 C-0.3574765 1.93125966 -0.3574765 1.93125966 0 0 Z " fill="#1B4652" transform="translate(758,242)"/>
<path d="M0 0 C-1.81921182 2.20220378 -2.70274242 2.94199852 -5.5625 3.5 C-8.35862883 3.7756937 -8.35862883 3.7756937 -10 7 C-10.99 6.67 -11.98 6.34 -13 6 C-11.87720538 5.01830524 -10.75168527 4.03972702 -9.625 3.0625 C-8.68527344 2.24458984 -8.68527344 2.24458984 -7.7265625 1.41015625 C-4.76764382 -1.00651715 -3.58505602 -1.07551681 0 0 Z " fill="#09273F" transform="translate(294,333)"/>
<path d="M0 0 C1.5 1.3125 1.5 1.3125 3 3 C3 3.99 3 4.98 3 6 C-0.3 6 -3.6 6 -7 6 C-7.33 5.01 -7.66 4.02 -8 3 C-7.05125 3.020625 -6.1025 3.04125 -5.125 3.0625 C-2.09333717 3.22551826 -2.09333717 3.22551826 0 2 C0 1.34 0 0.68 0 0 Z " fill="#2A3956" transform="translate(798,298)"/>
<path d="M0 0 C1.4540625 0.0309375 1.4540625 0.0309375 2.9375 0.0625 C2.2775 0.7225 1.6175 1.3825 0.9375 2.0625 C-0.0525 2.0625 -1.0425 2.0625 -2.0625 2.0625 C-2.3925 7.3425 -2.7225 12.6225 -3.0625 18.0625 C-3.3925 18.0625 -3.7225 18.0625 -4.0625 18.0625 C-4.08934312 15.24993719 -4.10926188 12.43762759 -4.125 9.625 C-4.13337891 8.82255859 -4.14175781 8.02011719 -4.15039062 7.19335938 C-4.1590143 5.14954779 -4.1147815 3.10566098 -4.0625 1.0625 C-3.0625 0.0625 -3.0625 0.0625 0 0 Z " fill="#002A4A" transform="translate(457.0625,285.9375)"/>
<path d="M0 0 C0.33 0 0.66 0 1 0 C1.95261487 4.76307437 2.08333357 9.1666528 2 14 C1.34 14 0.68 14 0 14 C-1.33224462 10.00326615 -1.13442113 6.16705497 -1 2 C-0.67 1.34 -0.34 0.68 0 0 Z " fill="#1F3A59" transform="translate(567,295)"/>
<path d="M0 0 C1.89551022 -0.05441656 3.7914792 -0.09298035 5.6875 -0.125 C6.74324219 -0.14820313 7.79898438 -0.17140625 8.88671875 -0.1953125 C12.02251859 0.00141271 14.17645373 0.66942346 17 2 C17 2.33 17 2.66 17 3 C10.84765625 3.09765625 10.84765625 3.09765625 9 3 C8.67 2.67 8.34 2.34 8 2 C5.32941149 1.85884839 2.67567762 1.95752893 0 2 C0 1.34 0 0.68 0 0 Z " fill="#072441" transform="translate(139,284)"/>
<path d="M0 0 C4.62 0 9.24 0 14 0 C13.67 1.98 13.34 3.96 13 6 C12.01 5.67 11.02 5.34 10 5 C10 3.68 10 2.36 10 1 C6.7 1 3.4 1 0 1 C0 0.67 0 0.34 0 0 Z " fill="#E6D156" transform="translate(796,257)"/>
<path d="M0 0 C3.20765358 1.60382679 3.96840505 3.91048098 5.125 7.1875 C5.41375 8.115625 5.7025 9.04375 6 10 C4.125 9.75 4.125 9.75 2 9 C-0.11103658 6.04454879 -0.19785783 3.56144099 0 0 Z " fill="#0E3654" transform="translate(701,454)"/>
<path d="M0 0 C3 2 3 2 3.875 3.875 C5.36116362 6.68219795 7.53136231 8.05107551 10 10 C10 10.66 10 11.32 10 12 C5.36505507 10.80815702 3.54899717 8.50210982 0.91796875 4.75390625 C0 3 0 3 0 0 Z " fill="#07263C" transform="translate(485,350)"/>
<path d="M0 0 C0 0.66 0 1.32 0 2 C-0.99 2 -1.98 2 -3 2 C-2.67 3.32 -2.34 4.64 -2 6 C-3.1446875 5.9071875 -3.1446875 5.9071875 -4.3125 5.8125 C-7.04525312 5.74101915 -7.04525312 5.74101915 -8.8125 7.5 C-9.204375 7.995 -9.59625 8.49 -10 9 C-8.9789114 5.32408105 -8.08564783 4.0660202 -5 1.6875 C-2 0 -2 0 0 0 Z " fill="#0C4775" transform="translate(755,372)"/>
<path d="M0 0 C0.66 0.99 1.32 1.98 2 3 C0.88671875 4.51953125 0.88671875 4.51953125 -1 6 C-3.91796875 6.07421875 -3.91796875 6.07421875 -7.1875 5.6875 C-8.81751953 5.50767578 -8.81751953 5.50767578 -10.48046875 5.32421875 C-11.31191406 5.21722656 -12.14335938 5.11023438 -13 5 C-13 4.67 -13 4.34 -13 4 C-12.31292969 3.96261719 -11.62585938 3.92523438 -10.91796875 3.88671875 C-10.01691406 3.82097656 -9.11585938 3.75523437 -8.1875 3.6875 C-7.29417969 3.62949219 -6.40085937 3.57148438 -5.48046875 3.51171875 C-2.69396 2.93686419 -1.75864246 2.1793144 0 0 Z " fill="#2E494F" transform="translate(788,267)"/>
<path d="M0 0 C2.475 0.99 2.475 0.99 5 2 C5 2.66 5 3.32 5 4 C5.99 4.33 6.98 4.66 8 5 C8.33 6.65 8.66 8.3 9 10 C7.88625 8.8553125 7.88625 8.8553125 6.75 7.6875 C4.176446 5.04428801 4.176446 5.04428801 1.6875 3.3125 C1.130625 2.879375 0.57375 2.44625 0 2 C0 1.34 0 0.68 0 0 Z " fill="#08253E" transform="translate(587,321)"/>
<path d="M0 0 C3.63 0 7.26 0 11 0 C10.67 0.99 10.34 1.98 10 3 C3.375 3.125 3.375 3.125 0 2 C0 1.34 0 0.68 0 0 Z " fill="#092038" transform="translate(368,308)"/>
<path d="M0 0 C2.77153305 1.38576653 3.48074938 3.34131141 5 6 C5.99 7.485 5.99 7.485 7 9 C5.68 9.33 4.36 9.66 3 10 C2.34 9.01 1.68 8.02 1 7 C0.01 6.67 -0.98 6.34 -2 6 C-1.67 5.34 -1.34 4.68 -1 4 C-0.34 4.33 0.32 4.66 1 5 C0.67 3.35 0.34 1.7 0 0 Z " fill="#D8C340" transform="translate(784,294)"/>
<path d="M0 0 C0.33 0 0.66 0 1 0 C1.33 1.65 1.66 3.3 2 5 C5.3 5.33 8.6 5.66 12 6 C12 6.33 12 6.66 12 7 C7.71 7 3.42 7 -1 7 C-1 1 -1 1 0 0 Z " fill="#1C3239" transform="translate(794,252)"/>
<path d="M0 0 C1.61949011 2.57213134 2.04408751 3.67669159 1.625 6.75 C1.41875 7.4925 1.2125 8.235 1 9 C0.01 9 -0.98 9 -2 9 C-1.34 7.35 -0.68 5.7 0 4 C-0.99 3.67 -1.98 3.34 -3 3 C-2.01 2.01 -1.02 1.02 0 0 Z " fill="#1E4256" transform="translate(816,300)"/>
<path d="M0 0 C1.7074998 1.28062485 3.37373596 2.61767557 5 4 C5 4.66 5 5.32 5 6 C7.475 6.99 7.475 6.99 10 8 C9.01 8.33 8.02 8.66 7 9 C4.95703125 7.56640625 4.95703125 7.56640625 2.8125 5.5625 C2.09707031 4.90378906 1.38164063 4.24507813 0.64453125 3.56640625 C0.10183594 3.04949219 -0.44085938 2.53257812 -1 2 C-0.67 1.34 -0.34 0.68 0 0 Z " fill="#082640" transform="translate(123,319)"/>
<path d="M0 0 C0.99 0 1.98 0 3 0 C4.13480527 3.60993172 4.10015767 6.9842327 4.0625 10.75 C4.05347656 11.92046875 4.04445312 13.0909375 4.03515625 14.296875 C4.02355469 15.18890625 4.01195312 16.0809375 4 17 C3.67 17 3.34 17 3 17 C2.92652344 15.78763672 2.92652344 15.78763672 2.8515625 14.55078125 C2.73941406 12.94783203 2.73941406 12.94783203 2.625 11.3125 C2.55539063 10.25675781 2.48578125 9.20101563 2.4140625 8.11328125 C2.01239911 5.09322731 1.25930981 2.75921946 0 0 Z " fill="#07253D" transform="translate(215,322)"/>
<path d="M0 0 C1.32 0.33 2.64 0.66 4 1 C4 3.31 4 5.62 4 8 C2 6.8125 2 6.8125 0 5 C-0.25 2.3125 -0.25 2.3125 0 0 Z " fill="#093456" transform="translate(767,419)"/>
<path d="M0 0 C1.32 0.66 2.64 1.32 4 2 C4 3.32 4 4.64 4 6 C2.02 5.34 0.04 4.68 -2 4 C-1.34 2.68 -0.68 1.36 0 0 Z " fill="#EFD440" transform="translate(773,305)"/>
<path d="M0 0 C0 0.99 0 1.98 0 3 C-3 5 -3 5 -5.6875 4.625 C-6.450625 4.41875 -7.21375 4.2125 -8 4 C-8 3.34 -8 2.68 -8 2 C-5.36 1.34 -2.72 0.68 0 0 Z " fill="#09233D" transform="translate(165,303)"/>
<path d="M0 0 C0 0.66 0 1.32 0 2 C-0.61875 2.2475 -1.2375 2.495 -1.875 2.75 C-4.35068687 4.20628639 -4.95125002 5.37812506 -6 8 C-6.99 8 -7.98 8 -9 8 C-9 7.01 -9 6.02 -9 5 C-7.5390625 3.61328125 -7.5390625 3.61328125 -5.625 2.3125 C-4.68527344 1.65701172 -4.68527344 1.65701172 -3.7265625 0.98828125 C-2 0 -2 0 0 0 Z " fill="#E7D03F" transform="translate(771,238)"/>
<path d="M0 0 C0.99 0.33 1.98 0.66 3 1 C1.38405168 3.04119788 -0.2856382 5.04072937 -2 7 C-2.66 7 -3.32 7 -4 7 C-3.43628586 3.73045798 -2.50037734 2.17424117 0 0 Z " fill="#D3E8F1" transform="translate(894,443)"/>
<path d="M0 0 C0 0.99 0 1.98 0 3 C-0.99 3.66 -1.98 4.32 -3 5 C-4.19232613 7.05003955 -4.19232613 7.05003955 -5 9 C-5.33 7.35 -5.66 5.7 -6 4 C-4.02 2.68 -2.04 1.36 0 0 Z " fill="#072842" transform="translate(122,345)"/>
<path d="M0 0 C2.0625 0.4375 2.0625 0.4375 4 1 C3.525625 1.598125 3.05125 2.19625 2.5625 2.8125 C0.83534256 5.00382924 0.83534256 5.00382924 0 8 C-0.66 8 -1.32 8 -2 8 C-1.125 1.125 -1.125 1.125 0 0 Z " fill="#062A3F" transform="translate(500,322)"/>
<path d="M0 0 C0.33 0 0.66 0 1 0 C1.8125 3.25 1.8125 3.25 2 7 C-0.4375 9.4375 -0.4375 9.4375 -3 11 C-3.66 10.67 -4.32 10.34 -5 10 C-4.360625 9.278125 -3.72125 8.55625 -3.0625 7.8125 C-1.01326465 5.01808816 -0.38667054 3.38336726 0 0 Z " fill="#3A99D8" transform="translate(816,420)"/>
<path d="M0 0 C1.98 0 3.96 0 6 0 C6 0.99 6 1.98 6 3 C3.69 3 1.38 3 -1 3 C-0.67 2.01 -0.34 1.02 0 0 Z " fill="#183951" transform="translate(147,364)"/>
<path d="M0 0 C2 3 2 3 2 6 C2.99 6 3.98 6 5 6 C5 6.66 5 7.32 5 8 C3.35 8 1.7 8 0 8 C-1.09658936 4.71023192 -0.79953138 3.28696233 0 0 Z " fill="#082141" transform="translate(344,357)"/>
<path d="M0 0 C0.33 0 0.66 0 1 0 C1.33 5.28 1.66 10.56 2 16 C1.34 16.33 0.68 16.66 0 17 C-1.22329074 13.33012779 -0.88021006 10.66032178 -0.5625 6.8125 C-0.46066406 5.54019531 -0.35882813 4.26789063 -0.25390625 2.95703125 C-0.17011719 1.98121094 -0.08632813 1.00539063 0 0 Z " fill="#02203E" transform="translate(330,348)"/>
<path d="M0 0 C0.66 0.66 1.32 1.32 2 2 C2.99 2 3.98 2 5 2 C4.34 3.32 3.68 4.64 3 6 C1.35 5.67 -0.3 5.34 -2 5 C-1.34 3.35 -0.68 1.7 0 0 Z " fill="#F2D645" transform="translate(757,251)"/>
<path d="M0 0 C0 0.99 0 1.98 0 3 C-1.65 3 -3.3 3 -5 3 C-5.33 2.01 -5.66 1.02 -6 0 C-3.50907189 -1.24546405 -2.58919267 -0.7767578 0 0 Z " fill="#204168" transform="translate(408,364)"/>
<path d="M0 0 C-5.625 4 -5.625 4 -9 4 C-9 3.34 -9 2.68 -9 2 C-8.01 2 -7.02 2 -6 2 C-6 1.34 -6 0.68 -6 0 C-3.50907189 -1.24546405 -2.58919267 -0.7767578 0 0 Z " fill="#0B233E" transform="translate(296,323)"/>
<path d="M0 0 C-0.99 0 -1.98 0 -3 0 C-3 1.98 -3 3.96 -3 6 C-3.99 5.34 -4.98 4.68 -6 4 C-6 2.68 -6 1.36 -6 0 C-3.50907189 -1.24546405 -2.58919267 -0.7767578 0 0 Z " fill="#DCC944" transform="translate(792,277)"/>
<path d="M0 0 C0.66 0.66 1.32 1.32 2 2 C-1 4 -1 4 -3.6875 3.625 C-4.450625 3.41875 -5.21375 3.2125 -6 3 C-5.67 2.34 -5.34 1.68 -5 1 C-2.5625 0.25 -2.5625 0.25 0 0 Z " fill="#D5E7EF" transform="translate(838,477)"/>
<path d="M0 0 C1.32 0 2.64 0 4 0 C2.70700306 2.88437779 1.34058637 4.87219421 -1 7 C-0.67 4.69 -0.34 2.38 0 0 Z " fill="#1E3A54" transform="translate(280,340)"/>
<path d="M0 0 C0.99 0.495 0.99 0.495 2 1 C2.144375 1.78375 2.28875 2.5675 2.4375 3.375 C3.05384083 6.25125721 3.77728856 7.16384707 6 9 C3.03 8.505 3.03 8.505 0 8 C0 5.36 0 2.72 0 0 Z " fill="#0C4373" transform="translate(710,328)"/>
<path d="M0 0 C0.66 0.33 1.32 0.66 2 1 C1.01 3.31 0.02 5.62 -1 8 C-1.99 8 -2.98 8 -4 8 C-2.87548273 5.0280615 -1.77706209 2.66559313 0 0 Z " fill="#05233E" transform="translate(487,318)"/>
<path d="M0 0 C1.98 1.65 3.96 3.3 6 5 C2.86650268 6.04449911 2.01031744 5.93423645 -1 5 C-0.67 3.35 -0.34 1.7 0 0 Z " fill="#204653" transform="translate(759,299)"/>
<path d="M0 0 C1.43088528 2.86177057 0.59991697 4.93375773 0 8 C-0.99 7.67 -1.98 7.34 -3 7 C-1.125 1.125 -1.125 1.125 0 0 Z " fill="#0D4471" transform="translate(858,383)"/>
<path d="M0 0 C6.15234375 0.5859375 6.15234375 0.5859375 8 1 C8.33 1.66 8.66 2.32 9 3 C2.84765625 2.4140625 2.84765625 2.4140625 1 2 C0.67 1.34 0.34 0.68 0 0 Z " fill="#0A273C" transform="translate(394,363)"/>
<path d="M0 0 C1.7074998 1.28062485 3.37373596 2.61767557 5 4 C5 4.66 5 5.32 5 6 C3.35 5.67 1.7 5.34 0 5 C0 3.35 0 1.7 0 0 Z " fill="#B5D7E9" transform="translate(755,305)"/>
<path d="M0 0 C0.99 0.33 1.98 0.66 3 1 C2.67 2.98 2.34 4.96 2 7 C1.01 6.34 0.02 5.68 -1 5 C-0.67 3.35 -0.34 1.7 0 0 Z " fill="#19395B" transform="translate(787,293)"/>
</svg>
